<svg version="1.1" xmlns="http://www.w3.org/2000/svg" viewBox="0 0 987.2867422069526 831.8299443522637" width="987.2867422069526" height="831.8299443522637">
  <!-- svg-source:excalidraw -->
  
  <defs>
    <style class="style-fonts">
      @font-face {
        font-family: "Virgil";
        src: url("https://excalidraw.com/Virgil.woff2");
      }
      @font-face {
        font-family: "Cascadia";
        src: url("https://excalidraw.com/Cascadia.woff2");
      }
      @font-face {
        font-family: "Assistant";
        src: url("https://excalidraw.com/Assistant-Regular.woff2");
      }
    </style>
    
  </defs>
  <g stroke-linecap="round" transform="translate(41.091359570937584 10.000000000000057) rotate(0 423.18794971554166 405.9149721761318)"><path d="M719.29 116.04 C742.11 127.96, 753.8 151.08, 768.94 172.01 C784.08 192.94, 798.92 217.76, 810.14 241.64 C821.35 265.51, 830.29 290.23, 836.21 315.24 C842.13 340.26, 844.72 366.6, 845.65 391.71 C846.57 416.81, 845.63 440.83, 841.78 465.88 C837.92 490.92, 831.47 517.45, 822.5 541.97 C813.53 566.49, 801.35 590.96, 787.96 612.99 C774.58 635.03, 760.07 655.28, 742.21 674.16 C724.36 693.05, 702.44 710.45, 680.85 726.29 C659.25 742.13, 636.25 757.4, 612.64 769.19 C589.02 780.98, 564.53 789.94, 539.13 797.05 C513.74 804.15, 487.14 809.56, 460.28 811.8 C433.42 814.04, 404.41 813.36, 377.98 810.48 C351.55 807.61, 327.36 802.1, 301.71 794.55 C276.06 787, 247.96 777.51, 224.07 765.18 C200.19 752.86, 178.69 736.92, 158.4 720.61 C138.11 704.31, 119.5 686.54, 102.34 667.36 C85.18 648.17, 68.7 627.41, 55.45 605.5 C42.19 583.6, 31.27 559.92, 22.8 535.93 C14.34 511.94, 8.45 487.12, 4.65 461.56 C0.86 435.99, -1.27 408.55, 0.03 382.56 C1.32 356.56, 5.51 330.17, 12.42 305.56 C19.34 280.95, 30.11 258.19, 41.49 234.88 C52.87 211.58, 65.44 186.98, 80.71 165.73 C95.99 144.49, 113.75 124.95, 133.16 107.43 C152.58 89.9, 174.35 73.76, 197.21 60.61 C220.06 47.45, 245.38 37.58, 270.3 28.5 C295.21 19.43, 320.2 10.95, 346.72 6.15 C373.23 1.35, 402.57 -0.56, 429.38 -0.31 C456.19 -0.07, 481.68 2.21, 507.6 7.62 C533.52 13.03, 560.04 22, 584.9 32.14 C609.77 42.27, 633.18 53.16, 656.81 68.43 C680.44 83.7, 714.69 112.75, 726.69 123.77 C738.69 134.78, 734.12 130.3, 728.81 134.53 M629.67 48.92 C655.32 54.62, 675.76 76.8, 695.99 93.98 C716.22 111.17, 734.06 132.04, 751.06 152.02 C768.06 171.99, 785.28 191.49, 797.98 213.82 C810.69 236.16, 819.79 261.55, 827.28 286.02 C834.77 310.49, 840.25 334.68, 842.94 360.64 C845.63 386.59, 845.64 416.01, 843.42 441.76 C841.2 467.51, 836.21 490.96, 829.63 515.14 C823.04 539.32, 815.51 563.88, 803.9 586.84 C792.28 609.79, 776.3 632.7, 759.95 652.86 C743.6 673.01, 725.51 690.53, 705.8 707.77 C686.1 725.01, 665.17 743.27, 641.71 756.31 C618.24 769.35, 590.29 777.27, 565.02 786.02 C539.75 794.77, 515.74 804.88, 490.11 808.79 C464.48 812.71, 438.18 811.05, 411.22 809.5 C384.26 807.95, 354.86 804.88, 328.33 799.5 C301.81 794.12, 276.53 787.19, 252.05 777.2 C227.56 767.21, 203.29 754, 181.43 739.58 C159.57 725.15, 139.45 709.09, 120.88 690.66 C102.31 672.24, 84.4 650.43, 70.02 629.04 C55.64 607.64, 44.55 585.72, 34.6 562.29 C24.65 538.87, 16.12 513.77, 10.34 488.48 C4.55 463.19, 0.16 436.01, -0.09 410.57 C-0.34 385.13, 4.41 360.87, 8.85 335.85 C13.28 310.82, 17.31 284.29, 26.51 260.39 C35.72 236.5, 49.91 214.05, 64.06 192.49 C78.22 170.93, 92.88 150.28, 111.44 131.04 C130.01 111.8, 153.57 91.88, 175.43 77.04 C197.3 62.2, 218.95 52.94, 242.64 42.01 C266.33 31.08, 291.73 18.24, 317.57 11.47 C343.41 4.7, 371.37 2.68, 397.68 1.4 C424 0.11, 449.16 0.82, 475.46 3.75 C501.75 6.68, 529.3 11.34, 555.46 18.97 C581.62 26.6, 620.67 42.75, 632.43 49.53 C644.19 56.31, 629.88 53.02, 626.02 59.66" stroke="none" stroke-width="0" fill="#1971c2"></path><path d="M417.79 -1.89 C443.41 -9.37, 471.81 -0.45, 497.9 4.29 C524 9.04, 549.93 16.83, 574.36 26.56 C598.8 36.29, 621.87 49.28, 644.53 62.66 C667.19 76.05, 690.73 89.76, 710.32 106.88 C729.9 124, 746.4 144.93, 762.03 165.38 C777.65 185.82, 792.62 206.55, 804.08 229.57 C815.54 252.6, 824.11 278.23, 830.79 303.53 C837.46 328.83, 842.35 355.51, 844.1 381.36 C845.86 407.2, 844.55 433.22, 841.34 458.61 C838.14 484.01, 832.79 509.59, 824.87 533.72 C816.94 557.84, 807 581, 793.79 603.37 C780.59 625.74, 762.61 648.69, 745.65 667.95 C728.68 687.21, 712.26 702.87, 692.01 718.93 C671.76 734.98, 648.05 752.13, 624.15 764.27 C600.25 776.42, 574.49 784.09, 548.61 791.82 C522.73 799.54, 495.5 807.53, 468.87 810.63 C442.24 813.72, 415.24 812.36, 388.86 810.36 C362.48 808.36, 336.45 805.64, 310.59 798.61 C284.74 791.58, 257.97 779.55, 233.74 768.19 C209.51 756.83, 186.38 745.39, 165.21 730.46 C144.05 715.52, 124.2 698.19, 106.74 678.58 C89.28 658.97, 74.16 635.28, 60.48 612.78 C46.79 590.29, 33.53 567.55, 24.62 543.62 C15.71 519.68, 10.99 494.05, 7.03 469.17 C3.07 444.28, 0.32 419.85, 0.85 394.29 C1.38 368.73, 4.71 341.24, 10.22 315.82 C15.72 290.4, 23.1 264.99, 33.89 241.79 C44.68 218.59, 59.85 197.52, 74.98 176.62 C90.11 155.72, 105.84 134.16, 124.66 116.38 C143.49 98.61, 165.49 84.3, 187.93 69.97 C210.37 55.63, 234.52 40.71, 259.31 30.36 C284.1 20.01, 299.76 12.09, 336.67 7.87 C373.58 3.64, 446.58 2.02, 480.77 5.02 C514.96 8.02, 542.77 19.68, 541.82 25.86 M738.57 136.87 C760.27 151.37, 771.31 178.71, 785.3 200.34 C799.28 221.96, 813.28 242.71, 822.48 266.62 C831.68 290.54, 836.31 318.32, 840.5 343.82 C844.69 369.32, 848.37 394.1, 847.62 419.62 C846.88 445.14, 842.17 471.45, 836.02 496.92 C829.87 522.4, 821.13 549.21, 810.73 572.47 C800.32 595.73, 788.34 616.34, 773.59 636.48 C758.84 656.62, 741.5 675.54, 722.22 693.28 C702.94 711.02, 680.86 728.84, 657.91 742.92 C634.95 757, 609.1 767.24, 584.51 777.77 C559.91 788.31, 536.25 800.3, 510.34 806.14 C484.43 811.99, 455.53 812.74, 429.07 812.84 C402.61 812.94, 378.28 810.99, 351.56 806.74 C324.84 802.48, 293.76 796.74, 268.76 787.31 C243.75 777.88, 224.06 764.46, 201.52 750.17 C178.99 735.88, 153.94 718.95, 133.54 701.56 C113.15 684.18, 94.7 665.78, 79.16 645.86 C63.62 625.93, 51.1 604.81, 40.3 582 C29.49 559.19, 21.21 534.61, 14.33 509.01 C7.45 483.4, 0.33 453.95, -0.99 428.37 C-2.31 402.78, 2.93 380.2, 6.39 355.5 C9.86 330.81, 11.58 304.78, 19.81 280.19 C28.05 255.61, 42.93 230.59, 55.83 208.02 C68.73 185.45, 80.68 164.45, 97.21 144.77 C113.74 125.08, 133.62 106.53, 154.99 89.9 C176.37 73.26, 201.59 56.77, 225.46 44.98 C249.33 33.19, 272.58 26.38, 298.2 19.15 C323.83 11.92, 352.76 4.28, 379.19 1.59 C405.63 -1.1, 430.52 0.59, 456.82 3.03 C483.12 5.48, 511.59 9.16, 536.98 16.25 C562.37 23.34, 585.07 34.04, 609.15 45.59 C633.23 57.14, 659.53 70.1, 681.46 85.55 C703.39 101, 732.03 128.98, 740.75 138.3 C749.46 147.61, 739.38 137.02, 733.75 141.45" stroke="#1e1e1e" stroke-width="2" fill="none"></path></g><g transform="translate(130.9108427758688 158.54760683892488) rotate(0 38.00055058670182 243.54898330567903)" stroke="none"><path d="M3.32 1.68 C2.96 2.52, -10.47 2.93, -2.38 3.52 C5.72 4.11, 38.02 6.7, 51.9 5.23 C65.77 3.75, 73.93 -2.92, 80.87 -5.32 C87.8 -7.72, 91.28 -9.05, 93.5 -9.18 C95.72 -9.31, 93.67 -5.57, 94.19 -6.1 C94.71 -6.62, 95.46 -11.2, 96.6 -12.34 C97.73 -13.47, 98.6 -12.18, 100.99 -12.91 C103.39 -13.64, 107.78 -14.46, 110.98 -16.71 C114.17 -18.96, 114.37 -24.67, 120.16 -26.41 C125.95 -28.15, 140.29 -28.92, 145.72 -27.16 C151.16 -25.39, 150.5 -20.34, 152.77 -15.82 C155.04 -11.29, 158.39 -2.72, 159.37 0 C160.35 2.72, 157.99 -1.22, 158.66 0.51 C159.34 2.25, 162.41 9.39, 163.41 10.4 C164.4 11.42, 164.26 5.47, 164.61 6.59 C164.96 7.71, 164.63 9.94, 165.52 17.12 C166.41 24.3, 170.5 41.35, 169.94 49.67 C169.37 57.99, 163.29 63.63, 162.14 67.06 C161 70.49, 163.46 69.15, 163.09 70.24 C162.72 71.33, 161.23 72.99, 159.93 73.59 C158.63 74.2, 155.37 73.28, 155.28 73.88 C155.18 74.48, 158.73 74.66, 159.35 77.19 C159.97 79.71, 159.64 79.3, 158.99 89.03 C158.34 98.76, 157.13 123.33, 155.46 135.58 C153.78 147.82, 153.07 154.08, 148.93 162.49 C144.79 170.91, 135.16 177.79, 130.61 186.07 C126.06 194.34, 125.11 206.52, 121.63 212.15 C118.14 217.77, 111.3 218.41, 109.7 219.81 C108.09 221.21, 111.65 219.7, 112.01 220.53 C112.37 221.36, 111.11 222.96, 111.86 224.79 C112.6 226.62, 115.18 230.49, 116.48 231.5 C117.79 232.51, 119.16 228.64, 119.69 230.83 C120.22 233.02, 119.61 241.58, 119.66 244.64 C119.71 247.69, 122.05 246.26, 119.98 249.17 C117.92 252.08, 109.84 257.97, 107.25 262.1 C104.66 266.23, 105.69 270.38, 104.47 273.94 C103.25 277.49, 100.87 282.59, 99.92 283.44 C98.96 284.29, 98.63 279.15, 98.74 279.04 C98.84 278.93, 100.83 280.29, 100.52 282.75 C100.22 285.22, 95.59 289.34, 96.91 293.84 C98.24 298.34, 103.22 303.57, 108.47 309.76 C113.73 315.94, 123.98 327.06, 128.44 330.94 C132.9 334.82, 134.49 331.67, 135.24 333.03 C135.99 334.39, 132.7 331.32, 132.96 339.1 C133.22 346.87, 136.41 371.7, 136.82 379.69 C137.23 387.68, 137.22 385.26, 135.41 387.06 C133.61 388.85, 127.86 388.9, 125.99 390.46 C124.12 392.02, 125.34 394.41, 124.21 396.43 C123.07 398.46, 120.49 401.35, 119.17 402.6 C117.86 403.85, 117.9 403.81, 116.32 403.93 C114.75 404.05, 109.98 401.52, 109.72 403.32 C109.46 405.13, 114.34 405.47, 114.78 414.77 C115.21 424.07, 111.19 449.99, 112.31 459.13 C113.43 468.26, 121.1 466.51, 121.49 469.58 C121.89 472.65, 114.46 475.03, 114.67 477.54 C114.89 480.05, 121.48 479.63, 122.8 484.63 C124.13 489.63, 123.74 504.79, 122.63 507.56 C121.52 510.33, 117.1 501.72, 116.14 501.26 C115.18 500.81, 117.75 504.43, 116.89 504.84 C116.02 505.24, 112.45 502.89, 110.97 503.68 C109.49 504.48, 118.46 507.72, 108.01 509.6 C97.55 511.49, 58.07 515.17, 48.23 515 C38.38 514.83, 50.89 509.48, 48.94 508.58 C46.98 507.67, 39.77 509.82, 36.51 509.56 C33.25 509.3, 31.69 510.2, 29.37 507.01 C27.06 503.82, 23.97 492.72, 22.61 490.42 C21.26 488.12, 23.02 494.19, 21.23 493.22 C19.45 492.25, 12.89 486.08, 11.91 484.61 C10.92 483.15, 16.11 487.44, 15.34 484.41 C14.56 481.38, 7.98 469.05, 7.24 466.43 C6.5 463.81, 12.27 472.02, 10.91 468.67 C9.56 465.32, 0.28 453.02, -0.88 446.31 C-2.05 439.61, 3.56 430.52, 3.93 428.43 C4.3 426.34, 1.97 435.04, 1.35 433.78 C0.72 432.51, 2.2 422.42, 0.2 420.84 C-1.79 419.26, -7.52 426.55, -10.63 424.3 C-13.73 422.06, -16.2 409.62, -18.44 407.37 C-20.67 405.12, -22.54 410.89, -24.04 410.82 C-25.53 410.74, -25.54 408.76, -27.41 406.94 C-29.27 405.11, -34.58 401.05, -35.21 399.84 C-35.84 398.63, -31.95 399.24, -31.18 399.68 C-30.41 400.11, -29.69 402.81, -30.59 402.46 C-31.49 402.11, -35.22 399.46, -36.6 397.57 C-37.97 395.69, -38.32 392.82, -38.84 391.13 C-39.36 389.44, -38.82 388.27, -39.71 387.44 C-40.61 386.61, -42.59 386.92, -44.19 386.16 C-45.79 385.39, -48.33 385.61, -49.32 382.85 C-50.31 380.1, -49.2 372.85, -50.13 369.62 C-51.06 366.39, -53.9 365.01, -54.9 363.49 C-55.9 361.96, -55.54 360.48, -56.14 360.47 C-56.73 360.46, -57.25 363.4, -58.45 363.41 C-59.64 363.43, -62.44 361.92, -63.3 360.58 C-64.16 359.24, -62.43 358.6, -63.6 355.37 C-64.77 352.14, -69.1 345.77, -70.31 341.22 C-71.51 336.67, -69.59 332.13, -70.85 328.08 C-72.1 324.03, -77.09 320.32, -77.85 316.93 C-78.61 313.53, -75.56 309.73, -75.41 307.71 C-75.26 305.68, -75.91 307.17, -76.93 304.77 C-77.96 302.37, -80.24 297.98, -81.57 293.3 C-82.9 288.62, -84.14 280.36, -84.93 276.67 C-85.71 272.98, -85.34 283.33, -86.29 271.16 C-87.24 258.99, -91.3 216.66, -90.61 203.66 C-89.93 190.67, -82.32 196.67, -82.19 193.18 C-82.07 189.69, -90.16 185.13, -89.86 182.72 C-89.55 180.31, -82.13 181.71, -80.39 178.72 C-78.64 175.74, -80.24 167.57, -79.38 164.81 C-78.53 162.05, -75.33 164.2, -75.24 162.18 C-75.15 160.16, -78.05 154.68, -78.85 152.7 C-79.65 150.72, -81.7 151.93, -80.02 150.3 C-78.33 148.68, -70.41 145, -68.76 142.95 C-67.1 140.9, -69.94 139.55, -70.11 138.01 C-70.29 136.48, -70.47 135.06, -69.79 133.73 C-69.11 132.39, -68.5 134.8, -66.03 130.01 C-63.56 125.22, -56.96 108.81, -54.96 105 C-52.96 101.19, -54.39 107.9, -54.05 107.15 C-53.71 106.4, -54.27 103.76, -52.9 100.52 C-51.54 97.28, -46.64 90.84, -45.86 87.73 C-45.08 84.62, -49.73 84.25, -48.23 81.85 C-46.72 79.45, -38.57 74.8, -36.81 73.31 C-35.05 71.82, -38.49 74.03, -37.69 72.9 C-36.89 71.76, -33.06 68.93, -32 66.49 C-30.94 64.05, -32.17 60.23, -31.32 58.25 C-30.47 56.27, -27.34 56.8, -26.91 54.6 C-26.48 52.39, -29.89 48.32, -28.74 45.04 C-27.6 41.76, -22.34 37.27, -20.06 34.92 C-17.77 32.56, -15.47 31.85, -15.02 30.92 C-14.58 29.98, -17.94 29.33, -17.4 29.28 C-16.85 29.23, -13.14 30.27, -11.75 30.6 C-10.36 30.94, -9.29 31.97, -9.05 31.3 C-8.81 30.63, -11.29 29.48, -10.3 26.6 C-9.31 23.71, -4.78 18.48, -3.13 14 C-1.48 9.53, -0.57 1.43, -0.39 -0.25 C-0.22 -1.94, -2.32 4.28, -2.06 3.89 C-1.8 3.51, 0.57 -2.44, 1.17 -2.55" stroke="none" stroke-width="0" fill="#40c057" fill-rule="evenodd"></path><path fill="#1e1e1e" d="M 0.54,-3.79 Q 0.54,-3.79 7.47,-2.64 14.40,-1.48 20.20,-0.96 26.00,-0.43 33.40,-0.16 40.80,0.09 49.61,-1.72 58.42,-3.53 65.22,-5.27 72.03,-7.02 77.07,-7.78 82.11,-8.54 84.81,-9.90 87.50,-11.27 89.97,-12.11 92.43,-12.95 99.11,-15.68 105.78,-18.40 109.47,-20.73 113.15,-23.06 116.08,-24.47 119.00,-25.87 122.54,-26.55 126.07,-27.22 128.50,-27.60 130.93,-27.97 135.02,-28.34 139.11,-28.72 143.77,-26.25 148.42,-23.79 151.48,-20.49 154.53,-17.19 156.78,-13.70 159.02,-10.20 160.16,-6.35 161.30,-2.50 162.60,-0.57 163.89,1.34 164.80,3.75 165.70,6.16 166.76,9.99 167.82,13.83 168.24,18.84 168.67,23.86 168.76,29.93 168.86,36.01 168.85,40.55 168.85,45.09 167.80,51.26 166.75,57.43 165.32,61.25 163.89,65.08 163.45,67.57 163.00,70.07 161.49,71.91 159.97,73.76 160.97,77.36 161.96,80.96 162.43,84.53 162.91,88.10 163.04,91.58 163.18,95.06 163.00,100.53 162.83,105.99 162.67,110.28 162.51,114.56 162.39,120.37 162.26,126.18 161.13,130.97 160.01,135.75 156.47,144.79 152.93,153.84 146.36,164.75 139.79,175.66 134.08,186.10 128.38,196.54 124.89,202.06 121.40,207.58 118.91,210.98 116.42,214.38 115.75,216.60 115.07,218.82 115.63,221.06 116.19,223.30 118.95,224.73 121.71,226.17 123.05,228.48 124.40,230.79 124.72,235.20 125.04,239.61 124.00,243.85 122.95,248.09 120.12,252.10 117.30,256.11 115.35,261.09 113.40,266.07 111.38,270.45 109.37,274.83 107.41,277.26 105.45,279.69 103.84,281.53 102.22,283.38 101.92,285.63 101.63,287.87 105.35,292.95 109.06,298.03 114.14,303.96 119.22,309.88 123.37,314.51 127.52,319.14 129.53,323.53 131.54,327.93 133.29,330.31 135.05,332.70 136.16,335.14 137.28,337.58 137.84,339.77 138.41,341.96 138.65,344.99 138.89,348.02 139.07,350.25 139.25,352.47 139.30,355.43 139.35,358.38 139.45,360.62 139.55,362.86 139.65,367.66 139.74,372.45 138.54,376.36 137.34,380.27 134.40,384.12 131.45,387.98 129.41,391.14 127.37,394.31 125.40,397.02 123.42,399.73 121.27,401.25 119.13,402.77 117.82,407.04 116.52,411.31 116.17,415.95 115.83,420.60 115.80,422.86 115.78,425.12 115.71,428.03 115.64,430.94 115.69,433.18 115.73,435.43 115.86,439.19 116.00,442.95 115.63,447.63 115.26,452.32 116.83,456.60 118.41,460.89 119.34,464.23 120.28,467.57 120.70,471.19 121.11,474.81 122.12,477.79 123.12,480.76 123.79,483.43 124.46,486.09 124.82,488.32 125.19,490.54 125.32,493.55 125.45,496.56 125.34,499.37 125.23,502.18 123.82,504.41 122.41,506.65 118.59,509.32 114.77,512.00 112.27,513.12 109.76,514.24 105.97,514.89 102.19,515.55 98.62,515.71 95.04,515.87 88.54,515.67 82.03,515.47 77.32,515.29 72.61,515.10 67.62,514.95 62.64,514.80 59.50,514.91 56.37,515.02 52.54,513.98 48.71,512.94 45.61,512.61 42.52,512.28 38.64,510.96 34.76,509.63 30.76,505.62 26.77,501.61 24.30,499.20 21.84,496.78 17.84,494.60 13.84,492.43 12.37,490.20 10.91,487.97 10.27,485.79 9.63,483.60 8.72,480.09 7.81,476.58 7.19,473.80 6.57,471.02 5.52,468.33 4.47,465.64 3.17,461.20 1.88,456.76 1.09,453.74 0.31,450.72 -0.12,448.35 -0.56,445.97 -0.97,442.03 -1.39,438.08 -3.57,434.63 -5.76,431.18 -7.69,429.80 -9.62,428.42 -13.67,424.20 -17.73,419.99 -21.09,417.35 -24.46,414.71 -26.50,412.32 -28.53,409.93 -31.15,407.67 -33.77,405.40 -36.12,403.28 -38.47,401.16 -40.09,398.15 -41.72,395.14 -45.22,391.49 -48.72,387.85 -50.77,382.91 -52.82,377.96 -53.83,374.85 -54.84,371.74 -56.87,370.03 -58.91,368.31 -61.08,366.53 -63.26,364.75 -64.63,361.16 -66.01,357.57 -68.43,354.56 -70.85,351.55 -72.46,349.84 -74.06,348.12 -75.31,345.61 -76.55,343.10 -77.00,339.68 -77.44,336.26 -77.48,332.99 -77.52,329.73 -78.97,324.62 -80.42,319.52 -80.65,317.19 -80.88,314.87 -82.48,311.44 -84.08,308.01 -84.40,305.89 -84.72,303.77 -85.53,298.68 -86.35,293.60 -87.45,289.03 -88.54,284.45 -89.85,280.61 -91.17,276.77 -92.03,273.87 -92.90,270.98 -93.37,268.63 -93.83,266.29 -94.26,262.36 -94.68,258.44 -94.72,255.64 -94.76,252.83 -94.84,250.66 -94.92,248.49 -94.99,243.77 -95.05,239.05 -94.74,234.88 -94.43,230.71 -94.48,227.94 -94.52,225.18 -94.50,222.02 -94.47,218.85 -94.56,216.52 -94.64,214.18 -94.64,211.20 -94.63,208.22 -94.68,205.84 -94.73,203.46 -93.58,200.54 -92.43,197.63 -91.93,192.74 -91.44,187.84 -90.07,183.89 -88.71,179.93 -88.08,175.93 -87.46,171.92 -86.19,168.51 -84.92,165.09 -84.58,161.37 -84.24,157.64 -82.97,154.94 -81.69,152.24 -80.29,149.61 -78.88,146.98 -78.39,143.57 -77.90,140.15 -76.55,137.44 -75.19,134.73 -75.02,132.22 -74.84,129.72 -73.53,126.33 -72.23,122.95 -69.30,118.61 -66.37,114.28 -64.11,110.70 -61.85,107.12 -59.68,104.95 -57.51,102.78 -57.30,100.53 -57.09,98.28 -55.81,95.11 -54.53,91.94 -52.92,88.74 -51.31,85.54 -49.52,82.86 -47.73,80.18 -45.97,78.03 -44.22,75.87 -43.87,73.27 -43.52,70.68 -42.10,68.01 -40.69,65.35 -39.15,62.11 -37.61,58.87 -35.59,56.54 -33.57,54.20 -33.40,52.01 -33.23,49.81 -31.79,47.15 -30.36,44.48 -27.51,41.58 -24.66,38.68 -22.40,34.76 -20.13,30.84 -17.83,27.71 -15.52,24.59 -13.15,21.09 -10.78,17.59 -10.04,14.00 -9.30,10.41 -8.94,7.85 -8.57,5.28 -7.02,3.15 -5.47,1.02 -5.43,-0.36 -5.40,-1.75 -4.98,-2.57 -4.56,-3.39 -3.90,-4.03 -3.24,-4.67 -2.41,-5.06 -1.57,-5.46 -0.66,-5.57 0.24,-5.68 1.14,-5.49 2.04,-5.30 2.84,-4.83 3.63,-4.37 4.23,-3.67 4.84,-2.98 5.19,-2.13 5.54,-1.28 5.59,-0.36 5.65,0.55 5.42,1.44 5.18,2.33 4.67,3.09 4.16,3.86 3.44,4.43 2.71,4.99 1.84,5.29 0.97,5.60 0.05,5.61 -0.86,5.62 -1.73,5.33 -2.61,5.05 -3.34,4.50 -4.08,3.95 -4.61,3.19 -5.13,2.44 -5.39,1.55 -5.64,0.67 -5.60,-0.24 -5.56,-1.16 -5.23,-2.02 -4.90,-2.88 -4.31,-3.58 -3.72,-4.29 -2.94,-4.77 -2.15,-5.26 -1.26,-5.46 -0.36,-5.67 0.54,-5.58 1.46,-5.49 2.30,-5.11 3.14,-4.73 3.81,-4.11 4.49,-3.48 4.93,-2.67 5.36,-1.87 5.52,-0.96 5.68,-0.05 5.54,0.85 5.40,1.75 5.40,1.75 5.40,1.75 3.31,6.82 1.21,11.88 0.65,15.46 0.09,19.05 -1.28,21.77 -2.66,24.48 -4.31,26.40 -5.96,28.33 -8.07,30.50 -10.18,32.67 -12.20,36.32 -14.22,39.97 -15.69,42.66 -17.15,45.34 -20.03,48.64 -22.90,51.93 -23.40,54.07 -23.90,56.21 -26.40,59.44 -28.91,62.67 -31.14,67.71 -33.37,72.74 -33.87,74.90 -34.36,77.06 -35.55,79.52 -36.75,81.98 -38.35,83.79 -39.96,85.60 -41.41,87.57 -42.86,89.54 -44.20,92.62 -45.55,95.70 -46.54,97.95 -47.53,100.20 -48.15,102.40 -48.77,104.60 -51.73,107.91 -54.69,111.22 -56.50,115.13 -58.30,119.04 -60.26,122.98 -62.23,126.92 -63.41,131.09 -64.59,135.25 -66.27,138.56 -67.96,141.86 -68.35,144.02 -68.75,146.17 -69.63,148.76 -70.50,151.35 -72.01,154.24 -73.51,157.13 -74.77,160.14 -76.04,163.15 -76.79,165.65 -77.55,168.15 -78.69,170.51 -79.83,172.86 -80.20,177.75 -80.57,182.65 -81.55,185.60 -82.53,188.56 -83.71,196.25 -84.90,203.95 -84.95,206.08 -85.00,208.22 -84.99,211.20 -84.99,214.18 -85.07,216.52 -85.15,218.85 -85.13,222.01 -85.11,225.18 -85.15,227.94 -85.20,230.71 -84.89,234.87 -84.57,239.04 -84.63,243.74 -84.68,248.45 -84.74,250.60 -84.80,252.75 -84.86,257.17 -84.91,261.59 -84.82,265.24 -84.72,268.89 -84.22,271.32 -83.73,273.74 -81.84,277.75 -79.95,281.76 -78.19,286.31 -76.42,290.86 -75.02,296.70 -73.61,302.55 -73.39,305.18 -73.17,307.81 -71.86,310.72 -70.55,313.63 -70.40,315.82 -70.26,318.01 -69.96,320.32 -69.66,322.62 -68.43,325.83 -67.19,329.03 -66.98,332.06 -66.76,335.09 -66.46,338.14 -66.15,341.18 -64.45,343.05 -62.76,344.92 -61.05,347.10 -59.34,349.27 -57.79,352.02 -56.25,354.78 -55.07,357.34 -53.89,359.91 -51.67,361.62 -49.46,363.34 -47.84,366.18 -46.21,369.01 -45.48,371.58 -44.74,374.16 -42.69,377.90 -40.63,381.64 -38.84,383.87 -37.06,386.10 -35.05,388.39 -33.04,390.68 -31.50,394.19 -29.95,397.70 -28.06,399.79 -26.17,401.88 -24.11,403.27 -22.06,404.66 -20.93,406.48 -19.80,408.30 -15.73,410.89 -11.65,413.48 -7.55,416.90 -3.45,420.33 0.64,424.56 4.74,428.79 6.27,430.78 7.79,432.78 8.05,437.04 8.31,441.29 8.40,445.08 8.48,448.87 8.97,451.49 9.46,454.10 11.17,458.23 12.88,462.36 14.23,465.83 15.57,469.29 15.92,471.63 16.27,473.98 17.66,479.01 19.06,484.05 20.58,486.32 22.11,488.59 24.49,490.10 26.87,491.62 29.32,494.15 31.76,496.67 34.66,499.62 37.55,502.57 40.53,503.58 43.50,504.60 47.19,505.12 50.88,505.63 53.66,506.57 56.45,507.51 59.53,507.61 62.61,507.70 67.57,507.51 72.54,507.33 77.22,507.06 81.90,506.79 88.14,506.40 94.38,506.02 97.43,505.73 100.48,505.44 102.93,505.04 105.38,504.63 108.97,503.29 112.57,501.94 114.33,499.39 116.10,496.85 116.00,492.32 115.91,487.80 115.61,485.60 115.30,483.39 114.02,479.58 112.73,475.76 112.43,472.76 112.12,469.76 111.37,466.87 110.63,463.98 108.23,458.27 105.83,452.56 105.46,447.75 105.10,442.93 105.25,439.15 105.40,435.36 105.47,433.09 105.55,430.81 105.56,427.78 105.56,424.74 105.71,422.35 105.86,419.95 106.04,416.54 106.22,413.12 107.95,408.64 109.69,404.16 110.31,402.04 110.93,399.92 113.94,397.22 116.95,394.52 118.68,392.34 120.40,390.17 122.39,386.53 124.39,382.88 126.26,380.06 128.13,377.23 128.92,374.78 129.70,372.32 129.78,367.62 129.87,362.91 129.95,360.68 130.03,358.46 130.03,355.59 130.03,352.72 130.10,350.58 130.16,348.45 130.13,345.90 130.10,343.35 129.64,339.95 129.18,336.54 127.40,333.62 125.63,330.69 124.00,327.27 122.37,323.85 117.96,319.42 113.55,315.00 107.84,308.98 102.13,302.96 98.36,298.09 94.59,293.23 93.67,290.30 92.75,287.36 93.30,284.92 93.84,282.48 95.12,280.20 96.40,277.93 99.87,275.00 103.34,272.08 105.01,267.85 106.67,263.61 108.71,257.68 110.76,251.76 112.65,248.79 114.54,245.82 115.24,242.99 115.93,240.17 115.69,237.30 115.45,234.42 114.36,232.50 113.26,230.58 111.34,228.90 109.42,227.23 108.53,224.22 107.64,221.21 108.36,218.73 109.08,216.26 110.49,213.67 111.90,211.09 114.29,207.86 116.69,204.63 120.04,199.23 123.39,193.83 129.09,183.25 134.79,172.67 141.04,162.16 147.30,151.65 150.56,143.01 153.82,134.37 154.67,130.26 155.52,126.16 155.37,120.39 155.21,114.61 155.00,110.35 154.78,106.09 154.47,100.80 154.15,95.50 153.97,92.36 153.78,89.21 153.49,86.54 153.20,83.87 152.26,80.27 151.32,76.67 151.79,74.55 152.25,72.42 154.41,70.06 156.57,67.69 157.31,65.22 158.06,62.76 159.42,59.59 160.79,56.43 161.64,50.82 162.50,45.21 162.31,40.74 162.11,36.26 161.76,30.47 161.40,24.69 160.77,20.48 160.14,16.27 158.46,10.80 156.77,5.33 155.33,2.43 153.88,-0.46 153.24,-3.29 152.60,-6.12 150.65,-9.00 148.71,-11.87 146.58,-14.22 144.45,-16.57 141.59,-18.05 138.73,-19.53 135.19,-19.66 131.64,-19.79 129.42,-19.76 127.20,-19.73 124.46,-19.45 121.71,-19.18 119.23,-18.35 116.74,-17.51 112.37,-14.58 107.99,-11.65 103.64,-10.16 99.30,-8.67 96.76,-7.39 94.21,-6.11 92.08,-5.83 89.94,-5.54 86.48,-4.27 83.02,-3.00 78.25,-2.23 73.49,-1.46 66.56,0.40 59.64,2.27 50.16,4.27 40.69,6.28 33.11,6.18 25.54,6.09 19.47,5.77 13.40,5.46 6.43,4.62 -0.54,3.79 -0.98,3.67 -1.43,3.55 -1.84,3.33 -2.24,3.11 -2.58,2.79 -2.92,2.48 -3.17,2.09 -3.43,1.71 -3.58,1.27 -3.74,0.83 -3.78,0.37 -3.83,-0.08 -3.76,-0.53 -3.70,-0.99 -3.53,-1.42 -3.35,-1.85 -3.08,-2.22 -2.81,-2.60 -2.46,-2.90 -2.11,-3.20 -1.69,-3.40 -1.28,-3.61 -0.83,-3.71 -0.38,-3.81 0.08,-3.80 0.54,-3.79 0.54,-3.79 L 0.54,-3.79 Z"></path></g><g transform="translate(500.55256211924006 210.3665394571545) rotate(0 164.0932866243936 176.18437090198051)" stroke="none"><path d="M-0.92 -1.23 C-0.1 -1.87, 0.42 0.66, 7.92 -0.43 C15.42 -1.52, 32.71 -4.5, 44.08 -7.78 C55.45 -11.05, 68.72 -17.94, 76.13 -20.05 C83.54 -22.17, 85.37 -20.28, 88.52 -20.48 C91.67 -20.67, 88.91 -18.5, 95.04 -21.21 C101.17 -23.92, 119.66 -33.9, 125.28 -36.74 C130.91 -39.57, 125.23 -36.01, 128.8 -38.22 C132.37 -40.42, 141.73 -48.31, 146.71 -49.96 C151.69 -51.61, 148.23 -47.42, 158.7 -48.12 C169.18 -48.81, 201.04 -54.38, 209.57 -54.12 C218.09 -53.85, 209.35 -49.01, 209.86 -46.55 C210.36 -44.1, 211.92 -41.47, 212.6 -39.39 C213.28 -37.3, 212.28 -36.29, 213.95 -34.06 C215.61 -31.83, 209.91 -27.58, 222.61 -25.98 C235.31 -24.39, 279.45 -24.66, 290.15 -24.5 C300.84 -24.35, 287.46 -25.84, 286.76 -25.04 C286.07 -24.25, 284.83 -22.25, 285.99 -19.76 C287.15 -17.27, 291.85 -12.82, 293.73 -10.08 C295.61 -7.35, 296.67 -4.56, 297.26 -3.35 C297.85 -2.14, 297.13 -2.09, 297.26 -2.82 C297.4 -3.56, 297.67 -8, 298.07 -7.76 C298.48 -7.52, 295.03 -3.23, 299.69 -1.39 C304.36 0.45, 321.2 2.46, 326.06 3.28 C330.92 4.1, 328.44 2.7, 328.85 3.54 C329.25 4.38, 327.49 7.48, 328.5 8.32 C329.51 9.15, 334.16 6.03, 334.91 8.54 C335.67 11.05, 332.45 21.33, 333.04 23.38 C333.64 25.44, 337.09 20.69, 338.48 20.87 C339.87 21.05, 340.33 24.36, 341.4 24.46 C342.47 24.55, 344.52 21.1, 344.89 21.43 C345.26 21.75, 344.19 23.63, 343.62 26.42 C343.05 29.21, 340.87 36.1, 341.48 38.17 C342.09 40.25, 346 37.77, 347.27 38.85 C348.55 39.93, 348.06 43.16, 349.1 44.66 C350.15 46.16, 352.31 42.41, 353.56 47.86 C354.82 53.3, 356.11 72.71, 356.62 77.35 C357.13 81.99, 355.46 74.31, 356.63 75.69 C357.79 77.06, 363.04 83.75, 363.62 85.59 C364.2 87.44, 360.31 85.77, 360.09 86.77 C359.86 87.77, 361.64 90.14, 362.28 91.6 C362.93 93.05, 363.92 95.27, 363.95 95.51 C363.98 95.75, 361.62 91.76, 362.45 93.04 C363.29 94.32, 367.14 102.61, 368.97 103.18 C370.8 103.75, 372.9 96.91, 373.45 96.46 C374 96.01, 371.7 98.3, 372.28 100.5 C372.87 102.7, 377.03 108.02, 376.95 109.66 C376.87 111.3, 372.1 108.65, 371.79 110.35 C371.47 112.05, 373.81 115.53, 375.05 119.85 C376.29 124.18, 380.02 133.27, 379.22 136.31 C378.41 139.34, 371.67 135.8, 370.22 138.07 C368.77 140.34, 370.62 147.66, 370.5 149.93 C370.39 152.2, 371.02 150.76, 369.51 151.68 C367.99 152.61, 363.42 154.51, 361.43 155.48 C359.45 156.44, 359.32 156.76, 357.59 157.47 C355.87 158.18, 353.49 159.64, 351.07 159.73 C348.64 159.83, 346.85 157.3, 343.03 158.04 C339.21 158.78, 331.25 164.05, 328.14 164.18 C325.04 164.32, 327.44 159.14, 324.38 158.86 C321.32 158.57, 323.18 161.91, 309.79 162.48 C296.4 163.05, 255.05 161.79, 244.03 162.3 C233.01 162.8, 245.47 164.79, 243.69 165.53 C241.9 166.26, 236.12 164.61, 233.34 166.69 C230.55 168.77, 227.64 176.19, 226.99 178.02 C226.35 179.84, 229.42 176.69, 229.47 177.64 C229.52 178.59, 228.58 178.5, 227.27 183.7 C225.96 188.91, 222.06 205.6, 221.62 208.89 C221.18 212.17, 222.39 201.99, 224.62 203.41 C226.85 204.84, 232.59 214.92, 235.02 217.44 C237.45 219.95, 237.6 217.47, 239.21 218.52 C240.83 219.57, 242.94 223.9, 244.72 223.72 C246.5 223.53, 249.09 217.31, 249.91 217.41 C250.72 217.51, 249.06 222.71, 249.62 224.31 C250.18 225.92, 252.8 225.97, 253.28 227.07 C253.75 228.16, 251.62 230.44, 252.48 230.9 C253.34 231.36, 257.38 229.5, 258.44 229.84 C259.49 230.17, 256.98 232.79, 258.79 232.92 C260.59 233.05, 267.22 230.3, 269.25 230.63 C271.28 230.96, 269.48 232.41, 270.97 234.91 C272.45 237.4, 276.86 245.04, 278.16 245.6 C279.45 246.16, 277.68 238.57, 278.74 238.26 C279.8 237.96, 283.31 237.92, 284.53 243.76 C285.74 249.59, 285.68 268.11, 286.04 273.29 C286.39 278.48, 286.71 273.95, 286.66 274.87 C286.6 275.78, 284.33 278.05, 285.7 278.79 C287.07 279.54, 293.27 278.32, 294.88 279.36 C296.49 280.4, 294.31 284.96, 295.35 285.04 C296.4 285.12, 299.98 279.97, 301.17 279.84 C302.35 279.7, 295.86 283.67, 302.44 284.24 C309.02 284.81, 333.83 281.28, 340.62 283.25 C347.4 285.22, 342.35 294.89, 343.15 296.07 C343.96 297.25, 344.08 290.47, 345.44 290.33 C346.81 290.19, 349.5 293.91, 351.36 295.25 C353.22 296.58, 356.41 297.94, 356.61 298.35 C356.81 298.77, 351.36 296.33, 352.57 297.75 C353.77 299.18, 361.74 293.73, 363.82 306.9 C365.9 320.08, 365.65 365.86, 365.05 376.82 C364.46 387.78, 361.32 371.49, 360.26 372.66 C359.21 373.83, 360.13 382.25, 358.73 383.82 C357.33 385.39, 352.76 382.19, 351.87 382.09 C350.98 381.99, 354.59 381.78, 353.38 383.22 C352.17 384.66, 345.77 389.51, 344.61 390.73 C343.45 391.95, 346.04 389.07, 346.41 390.54 C346.78 392, 348.2 398.12, 346.83 399.54 C345.46 400.97, 338.64 398.29, 338.19 399.1 C337.75 399.9, 343.59 407.68, 344.16 404.38 C344.74 401.07, 347.76 388.93, 341.65 379.28 C335.55 369.64, 313.65 351.67, 307.54 346.52 C301.44 341.36, 306.64 348.31, 305.01 348.37 C303.38 348.42, 301.27 349.06, 297.76 346.87 C294.26 344.68, 287.58 336.59, 283.95 335.23 C280.32 333.86, 278.33 338.76, 275.98 338.68 C273.63 338.6, 272.19 336, 269.84 334.74 C267.5 333.49, 263.37 332.7, 261.93 331.14 C260.48 329.58, 262.23 326.3, 261.17 325.39 C260.1 324.47, 255.85 325.54, 255.54 325.64 C255.23 325.74, 261.17 327.78, 259.32 325.98 C257.46 324.17, 247.35 318.1, 244.42 314.81 C241.48 311.51, 248.6 314.6, 241.71 306.22 C234.82 297.83, 211.61 274.74, 203.08 264.52 C194.55 254.29, 192.91 249.46, 190.53 244.87 C188.15 240.28, 190.03 239.03, 188.82 236.98 C187.6 234.92, 183.81 233.71, 183.25 232.52 C182.69 231.34, 186.12 232.19, 185.47 229.84 C184.82 227.49, 180.24 220.11, 179.36 218.45 C178.48 216.78, 180.91 220.38, 180.18 219.83 C179.44 219.28, 177.31 217.34, 174.94 215.15 C172.56 212.97, 172.7 207.63, 165.92 206.72 C159.13 205.81, 140.99 209.79, 134.22 209.69 C127.46 209.58, 128.79 207.01, 125.34 206.09 C121.89 205.18, 115.92 205.58, 113.52 204.18 C111.12 202.78, 113 200.24, 110.94 197.69 C108.88 195.14, 105.19 190.9, 101.14 188.89 C97.1 186.87, 88.63 188.04, 86.65 185.6 C84.66 183.16, 89.52 176.11, 89.24 174.24 C88.97 172.38, 86.04 175.49, 85.02 174.41 C83.99 173.33, 83.15 169.56, 83.08 167.76 C83.01 165.96, 85.14 164.2, 84.59 163.61 C84.04 163.01, 80.79 166.73, 79.77 164.18 C78.75 161.63, 80.3 150.69, 78.47 148.3 C76.65 145.92, 70.76 149.68, 68.8 149.86 C66.85 150.04, 67.19 150.43, 66.74 149.41 C66.28 148.38, 73.16 144.4, 66.06 143.7 C58.97 143, 31.67 144.6, 24.17 145.23 C16.67 145.85, 29.18 147.17, 21.08 147.47 C12.99 147.76, -15.33 147.66, -24.4 146.99 C-33.46 146.32, -31.62 144.49, -33.3 143.46 C-34.98 142.43, -33.27 142.78, -34.48 140.8 C-35.7 138.82, -38.88 133.14, -40.58 131.58 C-42.28 130.02, -43.77 132.25, -44.68 131.46 C-45.6 130.66, -45.57 133.4, -46.07 126.82 C-46.58 120.23, -48.14 97.93, -47.73 91.93 C-47.32 85.94, -45.17 91.15, -43.61 90.84 C-42.04 90.54, -38.57 90.19, -38.35 90.09 C-38.12 89.99, -41.98 91.87, -42.25 90.23 C-42.52 88.6, -42.45 81.49, -39.97 80.28 C-37.5 79.07, -30.91 84.27, -27.4 82.98 C-23.89 81.68, -21.45 74.1, -18.9 72.51 C-16.36 70.92, -13.6 75.28, -12.11 73.43 C-10.62 71.59, -11.25 63.87, -9.98 61.46 C-8.71 59.05, -5.58 59.6, -4.47 58.99 C-3.36 58.38, -4.59 58.9, -3.3 57.82 C-2.01 56.74, 2.45 54.08, 3.27 52.51 C4.09 50.94, 1.77 57.24, 1.64 48.4 C1.51 39.57, 2.22 8.25, 2.5 -0.47 C2.79 -9.2, 3.03 -4.44, 3.33 -3.97" stroke="none" stroke-width="0" fill="#2f9e44" fill-rule="evenodd"></path><path fill="#1e1e1e" d="M -0.34,-3.11 Q -0.34,-3.11 8.60,-4.04 17.54,-4.96 26.24,-6.31 34.94,-7.67 44.49,-10.19 54.04,-12.71 61.11,-14.77 68.17,-16.83 73.98,-19.61 79.78,-22.39 84.55,-23.68 89.32,-24.98 93.09,-26.45 96.87,-27.92 102.43,-30.50 107.98,-33.09 112.36,-35.19 116.74,-37.28 120.83,-38.33 124.93,-39.38 129.24,-41.62 133.56,-43.85 137.52,-45.84 141.48,-47.83 146.26,-49.71 151.03,-51.59 154.11,-52.62 157.19,-53.65 161.70,-53.96 166.22,-54.28 170.07,-54.48 173.92,-54.68 176.54,-54.95 179.16,-55.21 183.27,-55.16 187.39,-55.12 191.12,-55.15 194.85,-55.19 197.43,-55.37 200.00,-55.55 203.20,-55.01 206.40,-54.46 208.17,-52.05 209.94,-49.64 212.88,-45.27 215.81,-40.89 217.35,-39.01 218.88,-37.13 220.36,-35.50 221.83,-33.86 226.31,-33.37 230.79,-32.88 233.95,-32.69 237.11,-32.49 239.48,-32.51 241.84,-32.53 245.66,-32.68 249.48,-32.82 253.99,-32.88 258.49,-32.93 260.65,-32.98 262.81,-33.03 265.71,-32.98 268.62,-32.94 270.84,-32.98 273.07,-33.02 276.83,-33.13 280.59,-33.25 283.26,-32.85 285.93,-32.45 288.15,-30.71 290.37,-28.97 291.17,-26.63 291.98,-24.28 293.63,-21.11 295.28,-17.94 295.61,-15.77 295.93,-13.60 296.94,-11.06 297.94,-8.52 300.85,-7.20 303.76,-5.88 306.21,-6.24 308.66,-6.60 312.97,-6.39 317.27,-6.19 319.57,-6.12 321.87,-6.06 325.22,-4.55 328.56,-3.05 330.17,-0.89 331.78,1.26 335.69,3.42 339.59,5.58 340.27,8.02 340.94,10.45 340.65,13.23 340.35,16.02 343.98,18.54 347.61,21.06 349.09,23.71 350.56,26.36 351.00,28.60 351.43,30.84 352.95,34.02 354.48,37.21 356.19,40.76 357.90,44.31 358.18,47.67 358.46,51.02 358.53,53.21 358.59,55.41 358.65,59.17 358.71,62.93 358.61,65.70 358.52,68.47 360.45,72.41 362.37,76.35 363.27,79.01 364.16,81.67 364.50,83.86 364.83,86.05 366.03,88.82 367.22,91.59 368.79,93.30 370.36,95.02 372.54,97.16 374.73,99.30 376.58,102.76 378.42,106.22 378.73,108.33 379.03,110.43 380.53,113.58 382.02,116.72 382.32,118.91 382.61,121.09 382.61,124.08 382.61,127.06 382.63,129.25 382.66,131.45 381.31,136.69 379.96,141.93 378.37,144.65 376.77,147.37 374.40,149.48 372.04,151.59 369.02,153.17 365.99,154.75 364.15,156.15 362.30,157.54 359.71,158.65 357.12,159.77 354.49,160.88 351.87,161.99 346.24,163.32 340.62,164.65 335.03,165.11 329.45,165.57 323.39,166.60 317.34,167.64 309.49,168.06 301.65,168.48 295.38,168.60 289.11,168.72 285.46,168.87 281.82,169.02 278.27,169.13 274.71,169.23 272.21,169.42 269.71,169.61 266.66,169.71 263.60,169.80 261.31,169.95 259.02,170.09 255.11,169.95 251.20,169.80 249.21,170.76 247.22,171.73 244.80,172.37 242.37,173.01 239.50,174.18 236.62,175.35 234.99,177.65 233.35,179.96 231.44,181.38 229.52,182.81 229.91,186.29 230.29,189.76 230.31,193.69 230.32,197.62 229.92,200.21 229.51,202.79 231.84,205.14 234.16,207.49 236.94,209.25 239.72,211.02 241.46,212.68 243.20,214.34 247.47,215.07 251.74,215.79 253.94,217.62 256.14,219.45 258.05,222.82 259.96,226.18 262.09,227.16 264.21,228.14 267.84,229.60 271.47,231.07 274.02,232.89 276.57,234.71 280.62,237.10 284.66,239.48 286.08,244.38 287.50,249.27 287.87,251.99 288.23,254.70 288.43,256.92 288.62,259.14 288.76,262.76 288.90,266.38 290.36,269.39 291.82,272.40 294.10,274.85 296.38,277.30 299.89,279.07 303.39,280.83 307.46,280.71 311.54,280.59 314.32,280.72 317.10,280.85 319.30,280.86 321.50,280.87 324.41,280.97 327.32,281.06 329.56,281.05 331.79,281.04 336.28,281.29 340.77,281.55 343.89,284.16 347.00,286.78 350.14,288.61 353.28,290.45 356.57,293.04 359.87,295.64 362.38,298.35 364.88,301.06 366.14,303.65 367.39,306.25 367.86,308.55 368.33,310.85 368.58,314.70 368.84,318.54 368.90,322.07 368.97,325.60 369.01,329.06 369.04,332.53 369.06,335.99 369.08,339.45 369.00,343.89 368.91,348.34 368.89,350.49 368.88,352.64 368.90,356.35 368.93,360.06 368.96,363.56 368.99,367.06 367.60,372.06 366.21,377.05 365.54,380.10 364.87,383.16 362.95,385.39 361.02,387.63 357.45,389.69 353.88,391.75 353.07,394.17 352.26,396.59 350.60,399.05 348.94,401.51 348.38,403.33 347.82,405.14 347.32,405.69 346.82,406.24 346.20,406.65 345.59,407.06 344.89,407.31 344.19,407.56 343.46,407.64 342.72,407.72 341.98,407.62 341.25,407.52 340.56,407.24 339.87,406.97 339.27,406.54 338.67,406.11 338.18,405.55 337.70,404.99 337.37,404.32 337.03,403.66 336.87,402.94 336.70,402.22 336.71,401.48 336.72,400.74 336.91,400.02 337.10,399.30 337.46,398.65 337.81,398.00 337.67,401.27 337.53,404.55 336.73,402.00 335.92,399.46 335.92,396.78 335.92,394.10 336.00,389.16 336.07,384.23 335.45,381.50 334.82,378.77 329.32,373.47 323.81,368.17 320.30,364.46 316.79,360.75 314.25,358.22 311.71,355.68 308.99,353.82 306.27,351.95 299.31,348.76 292.36,345.58 287.47,343.47 282.57,341.37 279.55,340.65 276.53,339.92 272.71,337.23 268.90,334.55 266.75,333.88 264.61,333.21 262.17,331.72 259.74,330.23 254.23,327.34 248.72,324.45 244.74,318.92 240.75,313.40 236.46,308.38 232.16,303.35 225.33,295.14 218.50,286.94 212.69,280.51 206.87,274.08 201.31,266.21 195.75,258.33 192.41,252.99 189.07,247.64 187.45,244.28 185.82,240.92 184.20,238.88 182.58,236.84 181.52,234.51 180.46,232.17 179.93,230.04 179.39,227.91 179.29,224.84 179.19,221.77 175.62,220.97 172.04,220.17 169.66,218.81 167.28,217.44 162.35,216.67 157.41,215.91 154.83,215.84 152.24,215.77 149.20,215.69 146.16,215.62 141.84,215.30 137.53,214.99 134.03,213.92 130.54,212.85 124.56,211.20 118.58,209.54 116.09,209.17 113.59,208.80 110.73,207.40 107.86,206.00 105.34,202.95 102.81,199.89 101.02,196.68 99.23,193.46 96.24,191.62 93.26,189.79 90.30,186.39 87.34,182.99 85.85,180.41 84.36,177.84 81.94,173.93 79.52,170.03 77.49,166.48 75.47,162.92 75.69,160.56 75.92,158.20 72.21,156.42 68.50,154.64 67.21,152.48 65.92,150.32 63.33,150.66 60.74,151.01 58.21,150.92 55.68,150.82 50.69,150.74 45.71,150.66 43.49,150.68 41.27,150.70 38.34,150.63 35.42,150.56 32.46,151.32 29.50,152.08 25.87,152.71 22.24,153.34 18.80,153.44 15.36,153.54 10.92,153.28 6.48,153.03 3.63,153.10 0.78,153.17 -2.41,153.16 -5.62,153.15 -7.98,153.24 -10.33,153.33 -15.19,153.43 -20.05,153.52 -23.96,152.32 -27.87,151.12 -31.73,148.19 -35.58,145.25 -38.79,143.18 -42.00,141.11 -44.08,138.88 -46.15,136.66 -47.81,134.95 -49.46,133.25 -50.64,129.66 -51.82,126.07 -52.26,123.68 -52.70,121.28 -52.85,118.16 -53.00,115.04 -53.13,112.77 -53.26,110.50 -53.27,107.52 -53.28,104.55 -53.36,102.30 -53.44,100.06 -53.24,97.47 -53.05,94.89 -50.53,91.82 -48.01,88.76 -45.59,85.97 -43.16,83.18 -40.93,80.81 -38.69,78.44 -36.58,77.98 -34.46,77.52 -32.50,75.60 -30.54,73.67 -28.92,72.15 -27.29,70.64 -25.53,68.97 -23.76,67.29 -21.21,66.00 -18.66,64.70 -14.47,62.12 -10.27,59.54 -8.48,58.22 -6.70,56.89 -4.89,53.88 -3.08,50.87 -2.90,48.74 -2.72,46.62 -2.67,43.50 -2.62,40.39 -2.53,37.73 -2.44,35.07 -2.44,32.93 -2.44,30.79 -2.49,27.09 -2.54,23.38 -2.59,19.88 -2.65,16.39 -2.69,12.92 -2.74,9.46 -2.26,7.03 -1.77,4.59 -2.74,4.80 -3.70,5.00 -4.40,4.28 -5.10,3.56 -5.54,2.65 -5.97,1.74 -6.09,0.74 -6.22,-0.25 -6.01,-1.24 -5.81,-2.22 -5.30,-3.09 -4.79,-3.96 -4.03,-4.62 -3.28,-5.29 -2.34,-5.67 -1.41,-6.06 -0.41,-6.12 0.59,-6.19 1.56,-5.94 2.53,-5.68 3.38,-5.13 4.22,-4.57 4.84,-3.78 5.46,-2.98 5.79,-2.03 6.12,-1.08 6.14,-0.08 6.15,0.92 5.84,1.88 5.53,2.84 4.93,3.65 4.34,4.46 3.51,5.03 2.68,5.61 1.72,5.89 0.75,6.17 -0.25,6.13 -1.25,6.09 -2.19,5.73 -3.13,5.37 -3.91,4.73 -4.69,4.09 -5.22,3.23 -5.75,2.38 -5.98,1.39 -6.21,0.41 -6.11,-0.58 -6.02,-1.58 -5.60,-2.50 -5.19,-3.42 -4.51,-4.16 -3.83,-4.90 -2.94,-5.38 -2.06,-5.87 -1.07,-6.04 -0.08,-6.22 0.91,-6.07 1.91,-5.92 2.80,-5.46 3.70,-5.00 3.70,-5.00 3.70,-5.00 6.19,-2.24 8.68,0.51 9.16,4.98 9.64,9.46 9.60,12.92 9.56,16.39 9.50,19.89 9.45,23.39 9.39,27.11 9.33,30.83 9.31,32.99 9.29,35.15 9.35,37.93 9.40,40.71 9.15,44.50 8.89,48.29 8.48,50.52 8.07,52.75 5.84,56.62 3.62,60.48 1.98,62.95 0.35,65.43 -2.16,67.40 -4.67,69.38 -7.02,70.83 -9.36,72.28 -12.61,74.06 -15.86,75.84 -17.54,77.53 -19.21,79.21 -21.01,80.92 -22.81,82.63 -24.78,84.32 -26.76,86.00 -30.58,86.93 -34.40,87.86 -36.33,89.79 -38.26,91.73 -39.51,93.99 -40.76,96.25 -42.00,98.13 -43.25,100.01 -43.31,102.24 -43.37,104.48 -43.33,107.37 -43.30,110.26 -43.33,112.45 -43.36,114.63 -43.26,117.32 -43.16,120.00 -42.83,123.82 -42.50,127.64 -40.12,130.97 -37.74,134.30 -34.13,136.27 -30.53,138.23 -27.70,140.11 -24.87,141.99 -22.39,142.77 -19.92,143.56 -15.14,143.65 -10.35,143.74 -8.01,143.82 -5.66,143.90 -2.49,143.86 0.68,143.82 3.50,143.83 6.32,143.83 10.54,143.42 14.77,143.01 19.68,142.54 24.60,142.07 27.63,140.85 30.67,139.63 33.05,139.63 35.42,139.62 38.36,139.55 41.29,139.49 43.52,139.51 45.75,139.54 48.66,139.48 51.58,139.42 53.74,139.46 55.90,139.51 60.71,139.74 65.52,139.98 67.80,140.59 70.07,141.20 72.34,142.93 74.61,144.66 76.37,146.95 78.12,149.25 80.88,151.55 83.65,153.86 84.44,158.07 85.24,162.27 86.89,165.95 88.54,169.63 90.78,173.88 93.02,178.12 95.23,180.64 97.44,183.16 101.94,185.90 106.45,188.64 108.25,191.52 110.06,194.40 112.70,197.35 115.34,200.31 118.16,200.94 120.97,201.56 124.73,202.48 128.48,203.40 130.96,204.03 133.43,204.65 135.58,205.59 137.73,206.52 142.02,206.25 146.31,205.98 149.48,205.99 152.66,206.01 155.36,206.17 158.07,206.33 162.52,206.45 166.97,206.58 169.60,207.47 172.23,208.36 175.89,210.75 179.54,213.14 181.72,213.91 183.90,214.67 185.52,216.67 187.14,218.66 187.39,222.64 187.64,226.62 187.97,229.84 188.31,233.05 189.88,235.75 191.44,238.44 192.65,241.53 193.85,244.63 197.16,249.80 200.47,254.97 205.89,262.49 211.30,270.02 217.30,276.44 223.29,282.87 230.22,290.89 237.15,298.92 241.86,304.04 246.57,309.16 249.77,313.49 252.96,317.82 256.36,319.61 259.76,321.41 263.68,323.76 267.60,326.10 270.27,327.43 272.94,328.75 275.77,330.76 278.61,332.77 281.90,333.74 285.18,334.70 290.46,336.59 295.73,338.48 300.61,340.55 305.50,342.62 308.16,343.80 310.83,344.99 314.26,347.20 317.69,349.41 320.30,351.80 322.90,354.19 326.79,357.38 330.69,360.58 337.95,366.85 345.21,373.12 346.54,376.31 347.87,379.50 347.91,381.85 347.95,384.20 348.06,387.03 348.17,389.86 347.66,393.75 347.16,397.63 347.49,401.39 347.82,405.14 347.32,405.69 346.82,406.24 346.20,406.65 345.59,407.06 344.89,407.31 344.19,407.56 343.46,407.64 342.72,407.72 341.99,407.62 341.25,407.52 340.56,407.24 339.87,406.97 339.27,406.54 338.67,406.11 338.18,405.55 337.70,404.99 337.37,404.33 337.03,403.66 336.87,402.94 336.70,402.22 336.71,401.48 336.72,400.74 336.91,400.02 337.10,399.30 337.46,398.65 337.81,398.00 339.28,395.12 340.76,392.23 341.86,389.56 342.97,386.89 346.69,383.52 350.42,380.15 352.10,378.05 353.78,375.96 355.12,371.51 356.46,367.06 356.50,363.56 356.53,360.06 356.55,356.35 356.58,352.64 356.56,350.49 356.55,348.34 356.45,345.62 356.35,342.90 356.37,339.45 356.39,335.99 356.41,332.55 356.43,329.10 356.45,325.68 356.47,322.25 356.45,318.98 356.42,315.70 356.21,312.35 356.00,309.00 354.39,307.34 352.78,305.67 351.70,303.44 350.62,301.20 347.20,299.40 343.78,297.60 340.81,294.75 337.85,291.91 334.81,292.15 331.78,292.40 329.53,292.39 327.29,292.37 324.35,292.45 321.41,292.53 319.17,292.51 316.94,292.48 313.97,292.54 311.00,292.59 308.78,292.48 306.57,292.38 303.21,292.04 299.84,291.71 297.43,289.78 295.01,287.84 291.51,285.87 288.01,283.89 285.38,282.30 282.76,280.71 281.47,276.93 280.17,273.15 278.85,268.29 277.52,263.42 277.44,259.77 277.35,256.12 277.07,253.86 276.78,251.60 275.91,249.04 275.04,246.48 270.73,244.26 266.42,242.04 264.00,241.06 261.58,240.08 257.89,238.00 254.21,235.93 251.62,232.89 249.03,229.85 247.11,228.23 245.19,226.61 242.88,226.12 240.57,225.64 237.99,224.39 235.40,223.13 232.42,220.46 229.44,217.78 226.12,214.32 222.81,210.85 221.20,208.70 219.58,206.55 219.15,203.84 218.72,201.13 218.83,197.40 218.94,193.67 219.02,191.50 219.09,189.34 219.19,186.37 219.29,183.41 219.78,181.22 220.27,179.03 222.56,176.79 224.85,174.56 226.06,172.44 227.26,170.32 229.43,168.63 231.60,166.94 234.34,165.66 237.08,164.38 240.70,164.13 244.32,163.88 247.67,162.85 251.02,161.83 255.02,161.68 259.01,161.53 261.30,161.67 263.58,161.81 266.62,161.89 269.66,161.96 272.14,162.12 274.63,162.28 278.13,162.30 281.64,162.32 285.25,162.28 288.87,162.23 295.01,161.89 301.15,161.55 308.48,160.89 315.82,160.23 322.10,158.72 328.39,157.22 333.15,156.37 337.91,155.52 342.60,153.77 347.29,152.02 351.46,150.29 355.62,148.55 358.02,146.69 360.43,144.83 363.55,143.20 366.68,141.57 368.56,138.30 370.44,135.03 370.34,131.23 370.23,127.44 370.07,124.99 369.90,122.53 369.72,120.39 369.53,118.25 367.89,113.47 366.25,108.68 365.31,106.45 364.37,104.22 362.51,102.25 360.65,100.27 358.28,97.02 355.91,93.77 354.26,89.45 352.61,85.12 351.35,82.13 350.09,79.14 348.47,76.70 346.86,74.25 346.52,71.37 346.19,68.49 346.08,65.77 345.98,63.04 345.93,59.48 345.89,55.91 346.25,52.26 346.61,48.60 344.87,46.66 343.14,44.72 342.47,41.84 341.80,38.97 340.24,36.19 338.68,33.40 338.06,31.34 337.43,29.28 335.14,26.81 332.84,24.33 331.26,22.40 329.68,20.46 328.42,16.08 327.16,11.70 324.65,9.35 322.14,7.00 319.63,6.54 317.11,6.09 312.25,6.05 307.39,6.01 305.11,5.77 302.84,5.54 297.78,3.52 292.71,1.50 290.39,-0.99 288.07,-3.50 286.48,-5.42 284.90,-7.34 284.24,-11.80 283.58,-16.27 282.08,-19.14 280.58,-22.02 276.83,-22.13 273.07,-22.24 270.84,-22.29 268.61,-22.33 265.71,-22.28 262.81,-22.24 260.65,-22.29 258.49,-22.34 253.95,-22.40 249.41,-22.47 245.50,-22.70 241.59,-22.92 239.15,-23.06 236.70,-23.20 233.23,-23.31 229.75,-23.41 226.18,-23.81 222.62,-24.20 218.97,-25.64 215.32,-27.07 213.40,-29.26 211.47,-31.45 209.68,-33.91 207.89,-36.37 206.45,-38.90 205.01,-41.42 202.52,-44.74 200.02,-48.06 197.44,-48.24 194.87,-48.41 191.15,-48.42 187.43,-48.44 183.38,-48.34 179.32,-48.24 176.73,-48.38 174.15,-48.53 170.42,-48.45 166.68,-48.37 162.72,-48.01 158.75,-47.66 155.88,-47.13 153.01,-46.59 148.47,-44.78 143.93,-42.98 140.00,-40.97 136.07,-38.96 131.15,-36.46 126.23,-33.96 122.63,-33.21 119.03,-32.47 114.64,-30.34 110.25,-28.22 104.54,-25.55 98.82,-22.87 94.77,-21.32 90.73,-19.76 86.42,-18.61 82.12,-17.46 75.94,-14.49 69.75,-11.52 62.62,-9.39 55.50,-7.26 45.68,-4.61 35.87,-1.95 27.03,-0.48 18.20,0.99 9.27,2.05 0.34,3.11 -0.03,3.11 -0.40,3.10 -0.77,3.01 -1.14,2.91 -1.47,2.74 -1.80,2.56 -2.08,2.30 -2.36,2.05 -2.57,1.74 -2.79,1.42 -2.92,1.07 -3.05,0.71 -3.09,0.34 -3.13,-0.03 -3.08,-0.40 -3.03,-0.78 -2.89,-1.13 -2.76,-1.48 -2.54,-1.79 -2.32,-2.10 -2.03,-2.35 -1.75,-2.59 -1.41,-2.77 -1.08,-2.94 -0.71,-3.02 -0.34,-3.11 -0.34,-3.11 L -0.34,-3.11 Z"></path></g><g transform="translate(224.18492148868222 749.2834386867421) rotate(0 264.27655635297094 -3.454595507881834)" stroke="none"><path d="M-1.86 0.08 C-0.75 -0.4, 2.98 -0.97, 5.38 -1.62 C7.78 -2.28, 10.71 -4.2, 12.55 -3.87 C14.39 -3.55, 13.86 0.39, 16.42 0.31 C18.98 0.23, 26.07 -1.89, 27.9 -4.35 C29.72 -6.81, 25.62 -12.74, 27.35 -14.43 C29.08 -16.12, 35.08 -14.5, 38.26 -14.47 C41.44 -14.44, 42.88 -13.47, 46.42 -14.23 C49.97 -14.98, 56.24 -18.35, 59.55 -18.99 C62.86 -19.62, 64.57 -17.73, 66.29 -18.05 C68.01 -18.37, 69.28 -19.14, 69.86 -20.89 C70.44 -22.64, 67.57 -27.67, 69.78 -28.54 C72 -29.41, 79.78 -24.86, 83.14 -26.09 C86.5 -27.33, 88.34 -34.34, 89.96 -35.96 C91.57 -37.57, 90.83 -35.59, 92.82 -35.79 C94.81 -35.99, 98.85 -36.08, 101.89 -37.17 C104.94 -38.25, 103.74 -41.08, 111.08 -42.3 C118.42 -43.52, 140.36 -43.98, 145.96 -44.5 C151.55 -45.02, 141.49 -46.46, 144.65 -45.43 C147.8 -44.4, 161.95 -40.5, 164.9 -38.3 C167.84 -36.11, 161.09 -33.59, 162.31 -32.25 C163.53 -30.9, 168.49 -30.8, 172.22 -30.22 C175.95 -29.65, 182.43 -28.63, 184.67 -28.79 C186.9 -28.96, 176.36 -31.97, 185.64 -31.21 C194.92 -30.44, 228.98 -23.61, 240.34 -24.2 C251.7 -24.79, 249.95 -31.94, 253.81 -34.76 C257.66 -37.57, 262.68 -38.32, 263.45 -41.08 C264.23 -43.85, 257.32 -49.59, 258.46 -51.33 C259.6 -53.07, 268.14 -52.13, 270.3 -51.53 C272.45 -50.93, 270.44 -46.75, 271.38 -47.74 C272.32 -48.73, 274.45 -55.76, 275.95 -57.46 C277.45 -59.16, 278.09 -56.53, 280.38 -57.94 C282.67 -59.36, 286.57 -64.68, 289.68 -65.95 C292.8 -67.21, 295.61 -66.25, 299.09 -65.54 C302.58 -64.82, 308.94 -62.26, 310.59 -61.66 C312.24 -61.06, 307.71 -61.27, 309 -61.95 C310.29 -62.63, 313.5 -64.05, 318.35 -65.72 C323.21 -67.38, 333.19 -72.67, 338.15 -71.95 C343.11 -71.23, 341.86 -62.2, 348.12 -61.4 C354.38 -60.61, 369.93 -65.77, 375.73 -67.18 C381.52 -68.59, 381.43 -69.71, 382.9 -69.86 C384.36 -70.01, 381.88 -68.16, 384.52 -68.07 C387.17 -67.98, 396.03 -68.7, 398.78 -69.32 C401.53 -69.94, 398.67 -69.52, 401.04 -71.79 C403.41 -74.07, 401.47 -81.79, 412.99 -82.99 C424.51 -84.2, 459.98 -79.97, 470.15 -79 C480.33 -78.02, 473.56 -77.68, 474.05 -77.15 C474.54 -76.62, 471.87 -75.85, 473.1 -75.8 C474.32 -75.75, 478.85 -78.27, 481.41 -76.84 C483.97 -75.42, 481.19 -69.09, 488.44 -67.26 C495.69 -65.43, 518.37 -69.15, 524.9 -65.86 C531.44 -62.58, 527.17 -50.98, 527.66 -47.55 C528.15 -44.13, 528.07 -49.12, 527.83 -45.31 C527.6 -41.5, 527.97 -28.04, 526.25 -24.69 C524.53 -21.34, 517.87 -26.36, 517.54 -25.21 C517.22 -24.06, 525.18 -20.9, 524.31 -17.78 C523.43 -14.66, 514.46 -8.06, 512.3 -6.49 C510.14 -4.92, 512.95 -8.35, 511.36 -8.35 C509.77 -8.36, 505.75 -7.45, 502.75 -6.53 C499.75 -5.61, 494.09 -2.97, 493.35 -2.84 C492.61 -2.71, 498.55 -5.19, 498.31 -5.76 C498.07 -6.33, 492.79 -7.39, 491.89 -6.27 C491 -5.15, 493.37 0.25, 492.94 0.99 C492.51 1.72, 490.88 -1.96, 489.32 -1.84 C487.75 -1.71, 485.4 1.56, 483.54 1.73 C481.68 1.91, 479.13 -1.62, 478.17 -0.79 C477.21 0.04, 478.96 5.63, 477.77 6.7 C476.58 7.77, 472.51 5.24, 471.04 5.62 C469.57 6, 471.18 8.2, 468.94 8.98 C466.7 9.75, 460.38 9.26, 457.59 10.28 C454.8 11.3, 453.88 13.6, 452.21 15.08 C450.54 16.56, 451.11 18.7, 447.56 19.16 C444.02 19.63, 434.22 16.46, 430.92 17.88 C427.62 19.3, 428.56 26.97, 427.75 27.66 C426.95 28.36, 426.71 21.33, 426.1 22.03 C425.5 22.74, 427.13 31.31, 424.12 31.88 C421.12 32.45, 410.65 25.54, 408.07 25.45 C405.48 25.36, 410.67 31.05, 408.61 31.35 C406.55 31.66, 398.74 26.37, 395.69 27.29 C392.64 28.21, 390.63 34.88, 390.3 36.87 C389.97 38.86, 394.85 38.73, 393.7 39.24 C392.55 39.74, 385.79 39.59, 383.38 39.91 C380.96 40.22, 382.02 40.58, 379.19 41.13 C376.36 41.68, 368.15 43.24, 366.41 43.22 C364.67 43.19, 369.92 40.21, 368.76 40.96 C367.6 41.71, 362.06 46.52, 359.46 47.69 C356.87 48.87, 353.27 47.37, 353.19 48 C353.11 48.63, 360.85 50.42, 358.96 51.48 C357.07 52.54, 345.2 52.71, 341.85 54.37 C338.49 56.03, 341.29 60.44, 338.82 61.44 C336.35 62.43, 330.38 59.91, 327.01 60.37 C323.65 60.83, 321.31 62.85, 318.61 64.2 C315.92 65.55, 313.54 67.93, 310.82 68.45 C308.1 68.97, 306.84 67.34, 302.3 67.32 C297.77 67.29, 287.18 67.82, 283.6 68.32 C280.01 68.82, 306.4 69.28, 280.79 70.29 C255.17 71.31, 155.77 74.58, 129.89 74.39 C104.01 74.2, 129.54 70.03, 125.51 69.17 C121.48 68.31, 108.67 69.49, 105.71 69.23 C102.76 68.96, 108.65 69.11, 107.79 67.59 C106.93 66.07, 103.35 61.87, 100.57 60.11 C97.79 58.34, 92.52 57.78, 91.12 56.99 C89.71 56.2, 92.31 55, 92.15 55.37 C91.98 55.73, 92.12 60.35, 90.12 59.17 C88.13 57.98, 81.37 50.54, 80.17 48.23 C78.96 45.93, 83.47 45.83, 82.9 45.32 C82.33 44.81, 77.9 44.97, 76.74 45.19 C75.58 45.41, 76.02 47.08, 75.93 46.67 C75.83 46.25, 77.11 44.04, 76.19 42.69 C75.27 41.33, 71.84 39.55, 70.43 38.54 C69.02 37.52, 69.8 36.84, 67.74 36.61 C65.67 36.39, 59.74 37.97, 58.04 37.19 C56.35 36.4, 58.75 32.98, 57.57 31.92 C56.39 30.86, 51.56 31.22, 50.94 30.82 C50.33 30.42, 55.76 30.08, 53.89 29.55 C52.02 29.02, 41.72 27.44, 39.71 27.64 C37.7 27.84, 41.68 31.74, 41.82 30.77 C41.97 29.79, 42.1 23.5, 40.58 21.81 C39.06 20.12, 34.93 22.02, 32.71 20.63 C30.48 19.25, 27.62 13.98, 27.24 13.49 C26.87 12.99, 30.74 18.02, 30.44 17.67 C30.14 17.31, 26.01 12.59, 25.46 11.33 C24.9 10.08, 27.19 10.49, 27.13 10.14 C27.08 9.8, 25.54 9.96, 25.14 9.27 C24.74 8.58, 24.79 7.06, 24.73 5.99 C24.68 4.92, 27.01 3.78, 24.81 2.84 C22.62 1.9, 13.79 0.75, 11.57 0.36 C9.36 -0.04, 12.91 0.66, 11.53 0.45 C10.15 0.24, 3.44 0.92, 3.29 -0.89 C3.13 -2.7, 10.25 -9.51, 10.59 -10.41 C10.94 -11.3, 6.96 -8.06, 5.35 -6.27 C3.74 -4.49, 1.51 -0.51, 0.91 0.3" stroke="none" stroke-width="0" fill="#69db7c" fill-rule="evenodd"></path><path fill="#1e1e1e" d="M -1.22,-3.66 Q -1.22,-3.66 1.74,-4.72 4.71,-5.78 9.39,-6.11 14.07,-6.44 17.52,-7.47 20.98,-8.51 23.20,-9.97 25.43,-11.43 29.03,-12.34 32.64,-13.25 36.80,-14.30 40.96,-15.35 44.40,-17.56 47.85,-19.77 51.86,-21.06 55.87,-22.34 57.99,-23.78 60.10,-25.21 62.49,-26.16 64.89,-27.11 68.73,-28.22 72.57,-29.33 74.81,-30.78 77.04,-32.23 80.21,-33.90 83.38,-35.58 85.42,-37.21 87.46,-38.84 89.86,-39.95 92.26,-41.05 96.52,-43.85 100.78,-46.64 103.38,-47.58 105.97,-48.52 110.40,-48.70 114.82,-48.89 117.53,-49.09 120.24,-49.29 122.40,-49.45 124.57,-49.60 128.30,-49.83 132.04,-50.06 134.84,-50.05 137.63,-50.04 141.50,-48.85 145.37,-47.66 150.51,-45.98 155.64,-44.30 159.25,-42.49 162.87,-40.68 166.18,-38.94 169.49,-37.19 173.34,-36.47 177.18,-35.74 180.51,-34.40 183.84,-33.06 187.50,-32.50 191.16,-31.94 196.75,-31.60 202.35,-31.26 207.74,-31.07 213.12,-30.88 218.39,-30.77 223.66,-30.67 226.90,-30.80 230.14,-30.93 232.42,-31.10 234.70,-31.27 238.01,-32.96 241.32,-34.64 243.75,-36.45 246.18,-38.25 249.30,-39.98 252.41,-41.71 253.38,-44.15 254.35,-46.59 258.69,-48.40 263.02,-50.21 265.06,-51.59 267.10,-52.98 268.66,-55.19 270.22,-57.41 272.55,-59.11 274.88,-60.81 277.13,-61.62 279.37,-62.43 284.04,-64.32 288.71,-66.20 291.06,-66.53 293.41,-66.85 297.48,-67.88 301.56,-68.90 304.05,-69.48 306.55,-70.06 311.38,-71.79 316.21,-73.52 319.68,-73.69 323.14,-73.85 325.56,-74.00 327.97,-74.14 331.88,-74.33 335.78,-74.52 341.24,-73.38 346.70,-72.23 351.01,-71.76 355.31,-71.29 360.37,-70.87 365.43,-70.44 369.15,-71.08 372.87,-71.72 376.88,-72.08 380.90,-72.44 385.26,-73.38 389.61,-74.33 393.71,-74.78 397.81,-75.24 400.93,-77.12 404.04,-79.01 407.98,-80.16 411.92,-81.32 415.64,-81.82 419.36,-82.32 423.95,-82.39 428.55,-82.45 431.46,-82.68 434.37,-82.92 436.61,-83.13 438.85,-83.34 443.62,-83.59 448.38,-83.85 450.57,-83.96 452.76,-84.08 455.68,-84.11 458.60,-84.13 460.87,-84.21 463.15,-84.30 466.83,-83.15 470.50,-82.00 473.25,-80.39 475.99,-78.78 478.92,-78.41 481.85,-78.04 484.55,-76.66 487.25,-75.28 489.66,-75.12 492.08,-74.95 495.28,-74.95 498.48,-74.95 501.88,-75.01 505.29,-75.06 508.73,-75.12 512.18,-75.18 515.63,-75.22 519.09,-75.27 521.83,-74.78 524.57,-74.28 526.87,-72.46 529.16,-70.63 530.00,-68.13 530.83,-65.63 531.12,-61.79 531.41,-57.95 532.77,-53.46 534.13,-48.97 534.30,-45.70 534.46,-42.43 534.53,-40.18 534.60,-37.94 534.67,-34.14 534.74,-30.35 534.26,-27.57 533.79,-24.80 531.97,-22.47 530.15,-20.14 527.53,-17.72 524.92,-15.30 523.25,-13.58 521.59,-11.87 519.80,-10.12 518.01,-8.38 515.40,-7.03 512.80,-5.67 509.07,-3.72 505.34,-1.77 501.75,0.03 498.16,1.83 494.83,3.57 491.50,5.31 488.49,6.68 485.49,8.05 481.77,10.17 478.04,12.30 475.85,12.53 473.65,12.76 469.97,14.84 466.28,16.93 463.55,17.76 460.81,18.60 457.72,18.71 454.63,18.81 451.00,21.65 447.36,24.50 444.97,25.12 442.57,25.74 439.46,25.65 436.35,25.56 434.33,27.40 432.31,29.24 428.98,31.01 425.66,32.77 423.47,33.11 421.28,33.46 417.53,33.64 413.78,33.83 410.92,35.20 408.07,36.56 405.92,36.89 403.76,37.22 400.34,37.89 396.91,38.55 392.78,40.77 388.65,42.99 384.79,44.74 380.94,46.49 377.95,46.58 374.97,46.66 372.57,48.33 370.17,50.01 368.02,50.35 365.87,50.69 363.84,51.90 361.82,53.12 359.35,54.87 356.89,56.63 354.56,57.15 352.24,57.68 348.65,57.84 345.07,58.01 343.30,59.77 341.52,61.53 338.89,62.66 336.25,63.78 333.96,64.19 331.66,64.60 329.38,65.32 327.09,66.05 323.04,68.35 318.98,70.65 316.69,71.06 314.39,71.48 312.06,72.23 309.73,72.98 307.19,73.77 304.66,74.55 302.49,74.83 300.33,75.11 297.36,75.11 294.38,75.11 292.19,75.14 290.00,75.16 287.70,75.81 285.40,76.45 282.90,77.18 280.40,77.91 278.26,78.18 276.12,78.45 272.40,78.61 268.67,78.77 265.17,78.81 261.67,78.86 257.21,78.78 252.75,78.69 250.60,78.68 248.45,78.67 244.74,78.70 241.03,78.72 237.53,78.76 234.03,78.79 230.56,78.82 227.10,78.85 223.64,78.87 220.19,78.89 216.73,78.91 213.28,78.93 209.82,78.94 206.37,78.96 202.91,78.97 199.46,78.98 195.01,78.88 190.56,78.78 188.42,78.76 186.27,78.74 182.56,78.76 178.85,78.78 175.34,78.81 171.84,78.84 168.38,78.86 164.92,78.88 161.46,78.90 158.01,78.92 154.55,78.93 151.10,78.95 147.64,78.96 144.19,78.97 141.47,78.87 138.75,78.77 136.60,78.75 134.45,78.73 129.27,77.37 124.10,76.00 121.74,75.78 119.39,75.57 116.89,75.42 114.40,75.27 111.59,74.91 108.79,74.56 106.34,72.91 103.89,71.25 101.12,68.37 98.34,65.49 95.87,64.93 93.40,64.36 91.56,62.59 89.71,60.82 87.25,59.70 84.78,58.57 83.03,56.93 81.28,55.29 78.47,52.88 75.67,50.48 72.19,48.74 68.71,47.01 66.39,45.98 64.06,44.94 61.44,44.35 58.81,43.76 56.90,42.02 54.99,40.27 53.00,38.39 51.01,36.51 48.98,37.19 46.95,37.86 44.32,37.26 41.68,36.66 39.38,34.83 37.07,33.00 34.19,30.62 31.30,28.24 29.33,25.65 27.36,23.06 25.35,19.33 23.33,15.60 21.61,13.90 19.89,12.21 17.64,9.99 15.40,7.77 12.55,4.96 9.71,2.15 6.29,0.48 2.86,-1.19 5.35,-1.16 7.84,-1.13 6.16,1.35 4.49,3.84 3.75,4.45 3.02,5.07 2.13,5.42 1.25,5.77 0.29,5.82 -0.65,5.87 -1.57,5.61 -2.49,5.35 -3.28,4.81 -4.07,4.27 -4.65,3.51 -5.23,2.74 -5.53,1.84 -5.83,0.93 -5.83,-0.02 -5.82,-0.97 -5.51,-1.88 -5.21,-2.78 -4.62,-3.54 -4.04,-4.30 -3.25,-4.83 -2.46,-5.37 -1.53,-5.62 -0.61,-5.87 0.33,-5.82 1.29,-5.76 2.17,-5.40 3.06,-5.05 3.79,-4.43 4.51,-3.80 5.00,-2.98 5.49,-2.16 5.69,-1.23 5.90,-0.29 5.79,0.65 5.68,1.60 5.28,2.46 4.87,3.33 4.21,4.02 3.55,4.71 2.71,5.16 1.86,5.60 0.92,5.75 -0.02,5.90 -0.96,5.75 -1.90,5.59 -2.75,5.14 -3.59,4.69 -4.24,3.99 -4.90,3.29 -5.30,2.42 -5.69,1.55 -5.79,0.60 -5.89,-0.34 -5.68,-1.27 -5.48,-2.20 -4.98,-3.02 -4.48,-3.84 -4.48,-3.84 -4.49,-3.84 -0.83,-7.58 2.81,-11.32 8.67,-10.19 14.54,-9.05 18.33,-6.94 22.13,-4.82 24.09,-1.10 26.06,2.62 27.79,4.40 29.52,6.19 31.38,8.14 33.24,10.09 35.16,11.88 37.08,13.66 37.73,15.79 38.38,17.93 42.30,21.78 46.21,25.63 48.87,25.22 51.53,24.82 53.82,25.25 56.11,25.68 58.31,27.87 60.52,30.06 63.51,31.30 66.50,32.54 69.89,34.30 73.28,36.06 76.80,37.93 80.31,39.79 82.61,41.93 84.91,44.07 87.16,44.97 89.41,45.87 91.70,47.97 93.98,50.07 97.73,52.05 101.47,54.03 104.08,55.35 106.69,56.68 108.39,58.34 110.08,59.99 112.41,61.56 114.74,63.13 117.70,63.13 120.66,63.14 122.81,63.40 124.95,63.66 127.45,64.39 129.96,65.11 132.20,65.73 134.45,66.35 136.60,66.33 138.75,66.32 141.47,66.21 144.19,66.11 147.64,66.12 151.10,66.13 154.55,66.15 158.01,66.16 161.46,66.18 164.92,66.20 168.38,66.22 171.84,66.25 175.34,66.28 178.85,66.30 182.56,66.32 186.27,66.34 188.42,66.32 190.56,66.30 195.01,66.20 199.46,66.11 202.91,66.12 206.37,66.13 209.82,66.14 213.28,66.15 216.73,66.17 220.19,66.19 223.64,66.21 227.10,66.23 230.56,66.26 234.03,66.29 237.53,66.32 241.03,66.36 244.74,66.38 248.45,66.41 250.60,66.40 252.75,66.39 257.18,66.30 261.62,66.21 265.03,66.21 268.44,66.22 271.64,66.16 274.84,66.10 277.20,65.89 279.56,65.67 282.63,64.34 285.69,63.01 289.85,62.92 294.02,62.82 296.49,62.67 298.96,62.51 301.17,62.32 303.37,62.12 306.33,60.69 309.28,59.26 312.89,58.95 316.49,58.63 318.52,56.93 320.56,55.23 323.56,53.78 326.56,52.33 330.15,52.02 333.75,51.71 335.79,50.01 337.83,48.31 342.65,46.81 347.47,45.31 349.72,45.79 351.96,46.28 353.39,44.11 354.81,41.93 357.96,40.33 361.12,38.72 364.33,38.75 367.55,38.77 370.03,37.17 372.52,35.57 376.22,35.00 379.93,34.43 383.91,32.99 387.89,31.55 389.83,29.52 391.76,27.50 395.54,26.02 399.31,24.54 401.75,24.98 404.19,25.42 406.15,23.89 408.12,22.35 412.43,21.82 416.75,21.28 420.19,21.13 423.63,20.98 426.13,19.87 428.63,18.75 430.54,17.22 432.44,15.68 436.35,15.13 440.26,14.59 442.74,14.07 445.22,13.54 448.68,10.79 452.15,8.04 456.47,7.22 460.80,6.40 463.34,4.89 465.88,3.37 468.85,1.89 471.81,0.40 474.42,0.65 477.03,0.90 479.80,-1.32 482.56,-3.54 485.82,-5.21 489.08,-6.87 491.49,-7.97 493.89,-9.08 495.79,-10.81 497.69,-12.55 500.47,-13.19 503.25,-13.83 506.32,-15.57 509.39,-17.31 510.88,-18.93 512.37,-20.55 514.62,-22.99 516.87,-25.44 520.08,-27.10 523.29,-28.76 522.80,-31.28 522.32,-33.80 522.21,-37.70 522.10,-41.60 521.81,-44.67 521.52,-47.74 520.06,-52.63 518.61,-57.52 518.85,-60.21 519.08,-62.91 515.63,-62.95 512.17,-63.00 508.71,-63.07 505.24,-63.13 501.74,-63.23 498.24,-63.33 494.52,-63.57 490.80,-63.81 488.68,-64.15 486.56,-64.48 483.30,-66.14 480.04,-67.80 477.93,-68.20 475.82,-68.59 473.34,-69.54 470.85,-70.48 469.11,-71.70 467.37,-72.93 465.18,-73.76 462.98,-74.60 460.79,-74.69 458.60,-74.77 455.69,-74.79 452.77,-74.81 450.59,-74.93 448.40,-75.04 443.68,-75.25 438.95,-75.47 436.75,-75.62 434.54,-75.77 431.67,-75.86 428.80,-75.95 424.47,-75.68 420.14,-75.40 416.88,-75.11 413.62,-74.83 410.47,-74.11 407.33,-73.39 403.12,-70.89 398.92,-68.38 395.16,-67.84 391.39,-67.31 386.58,-65.92 381.77,-64.52 378.24,-64.07 374.72,-63.61 370.04,-62.33 365.36,-61.05 360.00,-60.78 354.65,-60.50 351.39,-60.67 348.12,-60.84 345.57,-61.40 343.01,-61.96 339.45,-62.78 335.88,-63.60 332.12,-63.69 328.37,-63.77 326.10,-63.73 323.83,-63.69 319.00,-63.23 314.18,-62.76 309.63,-61.04 305.08,-59.31 299.74,-58.09 294.41,-56.86 290.55,-56.62 286.69,-56.38 284.29,-55.00 281.89,-53.62 279.16,-52.96 276.42,-52.30 273.88,-49.27 271.33,-46.25 268.37,-44.66 265.41,-43.06 262.65,-42.55 259.89,-42.03 258.21,-38.99 256.52,-35.95 253.38,-34.13 250.23,-32.31 247.29,-30.44 244.35,-28.58 239.68,-26.29 235.02,-24.01 232.56,-24.20 230.10,-24.39 226.86,-24.55 223.62,-24.72 218.31,-24.70 213.01,-24.68 207.55,-24.69 202.08,-24.70 196.16,-24.83 190.24,-24.95 185.51,-25.49 180.77,-26.03 178.36,-27.28 175.95,-28.53 170.98,-29.22 166.00,-29.92 162.58,-31.52 159.15,-33.11 156.26,-34.49 153.37,-35.88 147.88,-37.03 142.39,-38.18 139.95,-38.96 137.50,-39.75 133.01,-39.82 128.53,-39.89 124.59,-40.03 120.65,-40.17 118.05,-40.13 115.45,-40.09 110.34,-39.35 105.22,-38.60 102.68,-37.18 100.14,-35.75 96.19,-33.95 92.24,-32.15 89.65,-30.40 87.06,-28.65 84.02,-27.04 80.98,-25.43 77.95,-23.83 74.92,-22.23 69.31,-20.54 63.70,-18.86 60.76,-17.40 57.82,-15.93 54.62,-15.07 51.42,-14.21 47.24,-11.38 43.06,-8.55 38.63,-7.07 34.21,-5.60 31.63,-5.24 29.05,-4.88 26.06,-3.35 23.08,-1.83 18.95,-0.52 14.82,0.78 11.01,1.29 7.20,1.81 4.21,2.74 1.22,3.66 0.76,3.76 0.30,3.85 -0.15,3.83 -0.62,3.81 -1.06,3.68 -1.51,3.55 -1.92,3.32 -2.32,3.08 -2.65,2.76 -2.99,2.44 -3.24,2.04 -3.49,1.65 -3.64,1.21 -3.78,0.77 -3.82,0.30 -3.86,-0.15 -3.78,-0.61 -3.71,-1.07 -3.52,-1.50 -3.34,-1.93 -3.06,-2.30 -2.78,-2.67 -2.42,-2.97 -2.06,-3.26 -1.64,-3.46 -1.22,-3.66 -1.22,-3.66 L -1.22,-3.66 Z"></path></g><g transform="translate(110.18326972857722 182.72977539409868) rotate(0 383.46010137489907 219.3668147505054)" stroke="none"><path d="M7.41 4.08 C5.57 3.71, -0.2 1.84, -3.08 2.45 C-5.97 3.05, -7.92 6.55, -9.9 7.7 C-11.88 8.85, -13.19 8.26, -14.95 9.34 C-16.71 10.41, -19.1 13.54, -20.44 14.14 C-21.77 14.74, -21.46 12.84, -22.96 12.92 C-24.45 12.99, -27.24 11.76, -29.4 14.59 C-31.56 17.41, -32.9 27.22, -35.9 29.87 C-38.9 32.52, -45.06 30.76, -47.4 30.49 C-49.74 30.21, -49.53 27.85, -49.94 28.22 C-50.35 28.59, -50.35 31.67, -49.86 32.69 C-49.36 33.72, -44.95 33.86, -46.96 34.35 C-48.98 34.85, -59.5 34.26, -61.95 35.68 C-64.4 37.11, -61.52 40.54, -61.66 42.93 C-61.8 45.33, -60.88 48.54, -62.79 50.06 C-64.7 51.58, -71.26 50.8, -73.12 52.07 C-74.99 53.34, -74.34 55.91, -73.99 57.66 C-73.64 59.4, -70.54 59.59, -71.02 62.56 C-71.5 65.53, -76.27 72.97, -76.84 75.47 C-77.42 77.98, -73.82 68.32, -74.46 77.6 C-75.1 86.89, -81.62 120.69, -80.68 131.17 C-79.74 141.66, -71.12 137.5, -68.81 140.5 C-66.51 143.5, -66.49 146.94, -66.86 149.18 C-67.22 151.41, -71.43 153.09, -71.01 153.94 C-70.59 154.79, -65.49 152.9, -64.36 154.28 C-63.23 155.65, -65.51 160.83, -64.25 162.18 C-62.98 163.53, -61.25 159.47, -56.76 162.38 C-52.27 165.29, -43.16 173.19, -37.29 179.65 C-31.41 186.1, -25.16 198.51, -21.52 201.11 C-17.89 203.7, -17.31 195.51, -15.47 195.21 C-13.63 194.92, -12.11 197.82, -10.47 199.33 C-8.83 200.84, -7.19 202.83, -5.63 204.27 C-4.08 205.72, -4.17 206.54, -1.15 208.01 C1.88 209.48, 8.54 209.84, 12.53 213.09 C16.51 216.34, 18.31 225.93, 22.76 227.53 C27.22 229.12, 34.54 222.16, 39.26 222.66 C43.97 223.16, 48.92 228.89, 51.05 230.54 C53.19 232.19, 48.39 231.53, 52.07 232.55 C55.75 233.57, 66.97 235.32, 73.12 236.66 C79.27 238, 83.92 239.23, 88.96 240.61 C94.01 241.99, 93.5 244.32, 103.41 244.94 C113.31 245.56, 138.31 241.95, 148.39 244.34 C158.46 246.73, 153.91 253.92, 163.86 259.28 C173.81 264.63, 193.95 272.33, 208.08 276.46 C222.2 280.59, 238.77 281.93, 248.62 284.06 C258.46 286.19, 261.03 287.89, 267.16 289.24 C273.28 290.58, 281.38 291.64, 285.36 292.15 C289.34 292.65, 285.71 290.72, 291.05 292.27 C296.39 293.82, 295.51 301.3, 317.39 301.46 C339.28 301.62, 402.79 295.17, 422.35 293.2 C441.9 291.24, 430.43 289.97, 434.73 289.66 C439.02 289.36, 443.74 292.02, 448.14 291.36 C452.53 290.7, 456.79 286.42, 461.1 285.72 C465.41 285.02, 469.39 288.64, 473.98 287.14 C478.56 285.64, 484.38 277.09, 488.59 276.73 C492.8 276.37, 493.68 285.77, 499.25 284.96 C504.82 284.14, 515.53 274.38, 522.01 271.85 C528.49 269.32, 532.65 270.37, 538.14 269.76 C543.63 269.14, 549.79 269.73, 554.92 268.15 C560.06 266.57, 564.95 261.12, 568.98 260.29 C573 259.46, 576.19 263.16, 579.08 263.19 C581.98 263.22, 583.58 262.41, 586.37 260.49 C589.17 258.58, 591.46 252.42, 595.87 251.7 C600.28 250.98, 609.97 256.48, 612.82 256.19 C615.67 255.9, 611.94 251.28, 612.95 249.95 C613.96 248.61, 615.03 249.67, 618.89 248.19 C622.76 246.71, 633.19 242.89, 636.12 241.06 C639.06 239.23, 634.73 237.63, 636.51 237.2 C638.28 236.76, 646.47 239.71, 646.79 238.44 C647.11 237.18, 642.09 232.2, 638.4 229.61 C634.72 227.02, 627.83 225.44, 624.67 222.89 C621.51 220.33, 621.21 216.66, 619.46 214.26 C617.71 211.86, 615.59 209.57, 614.19 208.5 C612.79 207.42, 612.71 209.41, 611.07 207.81 C609.44 206.2, 606.22 199.31, 604.38 198.88 C602.55 198.44, 601.79 205.42, 600.06 205.21 C598.33 204.99, 594.91 199.32, 594.01 197.59 C593.1 195.86, 595.64 197.12, 594.64 194.83 C593.64 192.53, 590.92 184.78, 588.01 183.81 C585.1 182.84, 579.49 189.78, 577.19 189.02 C574.89 188.26, 573.53 181.76, 574.22 179.27 C574.91 176.78, 580.84 174.34, 581.32 174.08 C581.81 173.83, 581.59 182, 577.13 177.74 C572.66 173.48, 559.59 154.88, 554.53 148.52 C549.48 142.16, 549.73 142.46, 546.79 139.6 C543.84 136.74, 537.71 133.7, 536.86 131.35 C536.02 129, 541.12 126.27, 541.72 125.49 C542.31 124.72, 541.26 126.28, 540.41 126.68 C539.56 127.08, 537.56 129.21, 536.62 127.88 C535.67 126.54, 534.78 119.82, 534.72 118.65 C534.66 117.49, 532.99 118.52, 536.25 120.88 C539.52 123.25, 549.12 129.7, 554.33 132.85 C559.53 136, 562.39 138.05, 567.47 139.76 C572.55 141.48, 579.69 140.97, 584.8 143.13 C589.9 145.3, 594.55 150.77, 598.1 152.75 C601.66 154.73, 603.31 154.09, 606.14 155.02 C608.97 155.95, 612.07 157.37, 615.08 158.33 C618.1 159.3, 620.23 159.97, 624.22 160.82 C628.21 161.67, 634.95 163.09, 639.03 163.44 C643.11 163.78, 646.96 162.09, 648.72 162.9 C650.48 163.72, 647.55 167.49, 649.57 168.32 C651.58 169.16, 657.73 166.38, 660.82 167.93 C663.91 169.47, 665.82 176.98, 668.1 177.58 C670.38 178.19, 669.25 170.58, 674.5 171.56 C679.74 172.54, 693.89 181.12, 699.55 183.44 C705.22 185.77, 704.68 184.74, 708.49 185.53 C712.31 186.31, 718.65 187.4, 722.44 188.16 C726.23 188.91, 728.14 188.24, 731.22 190.06 C734.31 191.89, 739.09 196.93, 740.97 199.09 C742.85 201.25, 741.32 202.59, 742.51 203.03 C743.69 203.47, 744.46 201.21, 748.09 201.73 C751.72 202.25, 761.05 205.57, 764.29 206.15 C767.53 206.73, 765.11 205.33, 767.55 205.21 C770 205.09, 775.2 203.24, 778.96 205.43 C782.72 207.62, 786.29 216.17, 790.11 218.35 C793.93 220.53, 799.96 218.03, 801.9 218.51 C803.83 218.99, 799.96 219.08, 801.73 221.22 C803.51 223.35, 809.51 230.09, 812.55 231.3 C815.59 232.52, 818.76 228.87, 819.96 228.5 C821.16 228.14, 818.31 228.03, 819.74 229.09 C821.18 230.15, 826.78 234.11, 828.57 234.88 C830.35 235.65, 828.31 232.96, 830.45 233.7 C832.59 234.44, 839.51 237.58, 841.41 239.33 C843.3 241.08, 840.13 242.42, 841.83 244.21 C843.52 246, 847.08 249.95, 851.57 250.07 C856.06 250.18, 865.93 242.62, 868.77 244.9 C871.6 247.18, 870.56 258.06, 868.59 263.74 C866.61 269.42, 859.87 275.91, 856.9 278.97 C853.92 282.04, 855.38 278.04, 850.74 282.13 C846.1 286.22, 832.28 300.77, 829.05 303.5 C825.82 306.23, 832.64 298.38, 831.37 298.49 C830.1 298.6, 825.25 301.86, 821.45 304.16 C817.65 306.45, 810.87 310.45, 808.55 312.25 C806.23 314.05, 807.44 313.92, 807.55 314.95 C807.65 315.98, 813.02 316.58, 809.16 318.44 C805.3 320.3, 789.42 320.14, 784.39 326.09 C779.36 332.04, 780.97 348.94, 779 354.12 C777.02 359.31, 776.33 355.18, 772.56 357.21 C768.8 359.24, 760 364.06, 756.38 366.33 C752.76 368.59, 752.95 368.15, 750.85 370.78 C748.74 373.41, 744.62 380.7, 743.75 382.11 C742.88 383.51, 746.32 377.76, 745.61 379.2 C744.9 380.64, 741.4 387.83, 739.5 390.75 C737.59 393.67, 735.77 395.27, 734.19 396.73 C732.61 398.19, 731.95 398.41, 730.01 399.51 C728.07 400.62, 724.07 402.7, 722.54 403.37 C721.02 404.05, 721.19 402.22, 720.87 403.55 C720.55 404.88, 720.87 410.64, 720.64 411.34 C720.41 412.04, 720.35 406.65, 719.5 407.77 C718.65 408.88, 715.96 417.2, 715.53 418.02 C715.1 418.83, 716.54 413, 716.93 412.67 C717.32 412.34, 719.93 415.47, 717.87 416.05 C715.8 416.64, 706.4 414.46, 704.53 416.2 C702.66 417.93, 706.27 425.72, 706.63 426.46 C707 427.19, 707.76 420.8, 706.72 420.62 C705.69 420.44, 701.73 423.26, 700.42 425.37 C699.11 427.49, 700.12 431.66, 698.84 433.31 C697.56 434.97, 693.74 434.73, 692.74 435.31 C691.75 435.88, 692.64 434.74, 692.88 436.74 C693.11 438.73, 694.56 445.95, 694.13 447.28 C693.7 448.6, 690.99 444.08, 690.31 444.68 C689.63 445.28, 692.4 450.84, 690.06 450.88 C687.71 450.92, 678.01 459.2, 676.23 444.94 C674.45 430.68, 726.02 379.1, 679.37 365.32 C632.72 351.55, 445.09 362.12, 396.31 362.28 C347.54 362.44, 390.82 365.56, 386.73 366.31 C382.64 367.05, 375.83 366.08, 371.76 366.77 C367.7 367.46, 364.82 368.96, 362.35 370.44 C359.88 371.93, 360.75 375.01, 356.94 375.67 C353.12 376.33, 344.88 374.33, 339.46 374.42 C334.05 374.52, 328.68 374.27, 324.43 376.22 C320.19 378.16, 317.8 384.48, 314.02 386.09 C310.24 387.7, 305.73 384.26, 301.75 385.9 C297.78 387.55, 294.93 395.43, 290.16 395.96 C285.39 396.49, 280.69 388.41, 273.15 389.08 C265.61 389.76, 267.37 398.12, 244.91 400.01 C222.46 401.89, 157.87 400.56, 138.4 400.39 C118.94 400.22, 135.63 401.56, 128.12 398.98 C120.6 396.4, 102.97 389.08, 93.33 384.91 C83.69 380.73, 74.84 375.53, 70.29 373.95 C65.73 372.37, 68.97 377.16, 65.99 375.43 C63.01 373.7, 60.88 367.02, 52.41 363.56 C43.94 360.11, 21.6 356.04, 15.15 354.7 C8.69 353.36, 15.48 355.11, 13.68 355.54 C11.88 355.97, 6.36 358.63, 4.35 357.28 C2.34 355.92, 2.78 347.84, 1.62 347.43 C0.47 347.02, -1.79 355.17, -2.59 354.83 C-3.39 354.49, -2.39 347, -3.19 345.39 C-4 343.78, -3.27 345.93, -7.41 345.17 C-11.54 344.4, -21.86 342.97, -28 340.78 C-34.13 338.59, -40.62 334.95, -44.21 332.04 C-47.8 329.12, -49.15 324.24, -49.55 323.28 C-49.95 322.32, -45.31 326.88, -46.61 326.27 C-47.91 325.66, -54.55 322.04, -57.33 319.62 C-60.1 317.21, -61.12 314.21, -63.27 311.79 C-65.42 309.37, -67.08 309.52, -70.23 305.11 C-73.39 300.7, -79.6 289.99, -82.2 285.33 C-84.79 280.67, -85.76 279.18, -85.8 277.14 C-85.84 275.1, -80.84 274, -82.44 273.07 C-84.04 272.13, -94.28 273.6, -95.4 271.53 C-96.52 269.46, -89.33 263.61, -89.16 260.66 C-88.99 257.71, -92.65 257.43, -94.38 253.84 C-96.12 250.26, -98.33 242.76, -99.56 239.14 C-100.8 235.52, -101.67 248.42, -101.79 232.15 C-101.92 215.88, -101.83 158.74, -100.31 141.54 C-98.79 124.33, -93.18 133.85, -92.69 128.91 C-92.21 123.97, -98.02 115.89, -97.41 111.9 C-96.8 107.91, -89.7 107.3, -89.06 104.96 C-88.42 102.62, -93.41 100.55, -93.57 97.87 C-93.72 95.19, -90.88 91.08, -89.99 88.89 C-89.1 86.71, -89.96 85.12, -88.25 84.74 C-86.53 84.36, -80.13 88.98, -79.71 86.62 C-79.28 84.27, -85.44 72.91, -85.71 70.61 C-85.98 68.32, -82.48 72.74, -81.34 72.84 C-80.2 72.95, -78.76 71.51, -78.88 71.27 C-79 71.02, -83.18 72.42, -82.05 71.38 C-80.92 70.33, -74.3 69.71, -72.08 64.99 C-69.85 60.28, -68.94 47.9, -68.71 43.07 C-68.47 38.24, -71.3 37.81, -70.66 35.99 C-70.01 34.18, -66.63 32.31, -64.86 32.17 C-63.08 32.02, -61.99 36.04, -60.03 35.13 C-58.06 34.21, -54.37 28.77, -53.06 26.7 C-51.76 24.62, -54 24.04, -52.21 22.68 C-50.42 21.32, -45.85 20.87, -42.35 18.54 C-38.85 16.2, -32.55 9.57, -31.19 8.67 C-29.84 7.76, -33.91 13.63, -34.2 13.1 C-34.49 12.56, -33.68 6.9, -32.93 5.43 C-32.18 3.97, -31.29 4.48, -29.7 4.29 C-28.1 4.09, -24.57 5.9, -23.36 4.25 C-22.14 2.6, -23.4 -4.43, -22.4 -5.62 C-21.41 -6.81, -20.21 -3.2, -17.39 -2.89 C-14.57 -2.57, -6.22 -3.12, -5.48 -3.72 C-4.75 -4.33, -13.53 -5.75, -12.99 -6.52 C-12.46 -7.3, -3.77 -7.9, -2.28 -8.37 C-0.79 -8.83, -6.57 -9.85, -4.05 -9.31 C-1.53 -8.78, 10.25 -6.79, 12.83 -5.16 C15.41 -3.52, 12.24 -0.02, 11.41 0.48 C10.57 0.98, 8.83 -2.26, 7.82 -2.18" stroke="none" stroke-width="0" fill="#ffec99" fill-rule="evenodd"></path><path fill="#1e1e1e" d="M 5.43,3.41 Q 5.43,3.41 2.29,4.55 -0.84,5.70 -4.39,6.21 -7.95,6.72 -10.21,8.02 -12.48,9.31 -14.49,11.01 -16.50,12.70 -18.62,13.56 -20.74,14.43 -23.57,15.88 -26.41,17.34 -29.61,20.24 -32.81,23.15 -36.48,24.51 -40.14,25.88 -41.41,27.45 -42.68,29.02 -44.45,29.88 -46.23,30.73 -46.78,32.14 -47.33,33.55 -50.06,34.42 -52.79,35.29 -54.77,35.46 -56.74,35.62 -57.19,36.73 -57.65,37.83 -57.88,39.32 -58.11,40.80 -59.47,42.96 -60.84,45.12 -63.62,47.25 -66.40,49.39 -67.33,51.18 -68.27,52.96 -68.76,54.93 -69.25,56.90 -70.59,58.08 -71.93,59.27 -72.16,60.50 -72.39,61.73 -72.63,64.55 -72.87,67.37 -74.12,70.08 -75.36,72.78 -75.82,74.84 -76.28,76.90 -76.49,80.10 -76.71,83.29 -76.81,85.85 -76.91,88.42 -76.96,90.68 -77.01,92.95 -77.03,96.27 -77.06,99.59 -77.07,102.18 -77.08,104.77 -77.09,108.23 -77.10,111.69 -77.10,114.34 -77.11,116.99 -77.11,119.29 -77.11,121.60 -77.12,124.92 -77.13,128.24 -76.13,130.61 -75.14,132.98 -73.71,135.16 -72.28,137.34 -71.57,139.65 -70.86,141.97 -69.58,145.18 -68.29,148.39 -66.74,150.87 -65.19,153.34 -64.51,155.68 -63.83,158.01 -60.63,159.88 -57.43,161.75 -54.86,163.89 -52.30,166.04 -50.16,168.14 -48.02,170.24 -45.02,173.50 -42.02,176.77 -36.63,181.64 -31.25,186.51 -27.90,189.78 -24.54,193.06 -21.23,194.32 -17.92,195.58 -15.26,197.42 -12.60,199.26 -9.48,201.17 -6.35,203.08 -4.08,203.85 -1.80,204.62 1.48,207.44 4.78,210.27 10.17,213.71 15.57,217.16 21.87,218.57 28.18,219.98 34.21,223.03 40.24,226.07 44.70,227.30 49.17,228.52 53.28,230.27 57.39,232.02 62.21,233.92 67.04,235.83 74.23,237.80 81.43,239.77 87.67,241.80 93.91,243.83 98.55,244.67 103.19,245.51 108.25,245.87 113.31,246.23 118.59,246.38 123.87,246.54 127.16,246.60 130.45,246.67 132.88,246.70 135.32,246.72 138.46,246.74 141.59,246.76 147.32,249.17 153.05,251.58 157.50,253.78 161.95,255.98 174.18,260.42 186.40,264.86 199.93,269.10 213.46,273.35 223.38,276.34 233.30,279.32 242.63,280.57 251.95,281.82 261.20,283.54 270.45,285.27 277.44,285.99 284.43,286.72 293.78,289.41 303.14,292.10 309.09,293.22 315.04,294.34 321.68,294.81 328.33,295.28 335.32,295.49 342.32,295.69 348.42,295.78 354.52,295.86 360.23,295.90 365.95,295.94 370.46,295.95 374.97,295.97 378.98,295.98 382.98,295.98 386.76,295.99 390.54,295.99 395.27,295.99 400.01,295.99 404.10,295.99 408.20,295.99 413.06,295.99 417.92,295.99 422.97,294.83 428.02,293.67 431.31,293.16 434.61,292.65 439.18,292.43 443.74,292.21 447.58,290.97 451.42,289.73 456.37,289.16 461.31,288.59 465.46,288.37 469.61,288.14 474.26,285.75 478.91,283.35 484.27,282.25 489.63,281.15 494.90,279.54 500.17,277.94 506.62,276.07 513.06,274.19 520.07,273.38 527.07,272.56 533.05,271.06 539.02,269.56 544.68,267.75 550.34,265.93 555.99,265.13 561.64,264.33 565.97,262.85 570.29,261.37 575.42,260.70 580.54,260.04 585.60,257.47 590.66,254.90 594.02,253.74 597.37,252.59 600.97,252.09 604.56,251.58 607.97,250.24 611.39,248.90 614.03,248.28 616.67,247.67 619.72,246.28 622.77,244.89 626.16,243.12 629.56,241.35 631.97,239.47 634.38,237.59 636.64,236.68 638.90,235.77 640.95,235.35 643.00,234.93 644.86,234.73 646.71,234.54 646.89,234.53 647.07,234.52 647.24,234.55 647.42,234.58 647.58,234.66 647.74,234.73 647.88,234.84 648.02,234.95 648.13,235.09 648.24,235.23 648.31,235.39 648.39,235.55 648.42,235.73 648.45,235.91 648.44,236.08 648.43,236.26 648.37,236.43 648.32,236.60 648.23,236.75 648.14,236.91 648.01,237.03 647.88,237.16 647.73,237.25 647.58,237.34 647.41,237.39 647.24,237.44 646.07,235.66 644.91,233.87 643.90,232.43 642.90,230.99 640.52,229.24 638.15,227.49 634.07,225.55 629.98,223.61 627.05,221.51 624.12,219.40 620.88,217.38 617.64,215.35 615.32,214.53 613.01,213.72 610.77,212.07 608.52,210.43 606.55,208.54 604.58,206.66 602.90,206.01 601.21,205.37 599.21,203.75 597.21,202.12 595.26,198.95 593.30,195.78 591.58,193.41 589.85,191.05 587.25,190.19 584.65,189.33 582.22,187.60 579.79,185.87 578.65,183.79 577.50,181.71 576.11,179.83 574.72,177.94 571.99,173.52 569.27,169.10 565.01,162.53 560.74,155.96 556.88,150.85 553.01,145.73 549.34,142.45 545.68,139.16 543.98,136.41 542.27,133.66 540.61,131.44 538.95,129.21 537.30,128.37 535.65,127.53 534.92,126.05 534.19,124.57 534.05,124.47 533.90,124.36 533.78,124.23 533.66,124.09 533.58,123.93 533.50,123.77 533.46,123.59 533.42,123.41 533.43,123.23 533.43,123.05 533.48,122.88 533.52,122.70 533.61,122.54 533.70,122.39 533.82,122.25 533.94,122.12 534.09,122.02 534.24,121.92 534.41,121.86 534.58,121.80 534.76,121.78 534.94,121.76 535.12,121.79 535.30,121.81 535.47,121.88 535.64,121.95 534.58,123.79 533.52,125.64 533.37,125.53 533.21,125.42 533.09,125.28 532.97,125.13 532.88,124.96 532.80,124.79 532.76,124.61 532.71,124.42 532.72,124.24 532.72,124.05 532.77,123.86 532.82,123.68 532.91,123.52 533.00,123.35 533.13,123.21 533.26,123.07 533.41,122.97 533.57,122.86 533.75,122.80 533.93,122.74 534.12,122.72 534.30,122.70 534.49,122.72 534.68,122.75 534.85,122.82 535.03,122.89 537.93,124.36 540.82,125.83 545.18,127.59 549.54,129.35 555.63,132.49 561.71,135.63 567.25,136.90 572.80,138.17 578.49,141.15 584.19,144.13 588.63,146.56 593.07,148.98 596.90,149.96 600.72,150.93 604.58,152.58 608.44,154.22 612.00,154.87 615.55,155.52 621.43,158.22 627.31,160.92 632.73,162.00 638.15,163.08 641.53,163.55 644.91,164.03 647.61,165.48 650.31,166.94 652.27,167.47 654.23,168.00 658.29,169.44 662.35,170.89 665.02,171.47 667.69,172.06 672.05,173.51 676.41,174.97 682.38,176.75 688.35,178.54 691.88,179.28 695.42,180.03 697.93,180.35 700.44,180.66 703.62,180.81 706.79,180.96 710.52,183.48 714.24,185.99 716.61,186.95 718.98,187.91 723.00,188.30 727.03,188.70 730.05,190.12 733.08,191.55 736.39,193.32 739.70,195.09 742.19,197.07 744.68,199.04 749.62,199.74 754.56,200.45 758.96,202.00 763.37,203.56 767.17,204.18 770.97,204.80 774.84,206.29 778.72,207.78 782.44,209.60 786.16,211.42 789.65,212.13 793.15,212.85 796.90,214.39 800.65,215.93 803.36,217.82 806.07,219.70 808.23,221.68 810.39,223.67 814.20,224.38 818.01,225.10 819.95,226.74 821.89,228.39 824.46,228.91 827.04,229.44 829.46,230.97 831.89,232.51 833.73,233.05 835.57,233.59 838.60,235.07 841.62,236.55 844.02,238.42 846.42,240.29 848.45,242.25 850.48,244.22 853.17,244.90 855.86,245.59 858.08,245.92 860.29,246.26 862.45,246.49 864.60,246.72 865.87,248.11 867.14,249.50 867.66,251.46 868.18,253.41 868.36,255.42 868.53,257.43 868.56,259.55 868.59,261.66 866.39,265.23 864.20,268.79 862.22,271.37 860.24,273.94 857.19,276.32 854.15,278.69 851.92,280.77 849.68,282.86 845.62,287.26 841.56,291.66 838.76,294.73 835.97,297.80 833.60,299.22 831.22,300.64 828.18,302.37 825.15,304.10 821.89,307.12 818.63,310.13 816.02,311.53 813.42,312.94 811.43,314.60 809.45,316.27 805.42,319.38 801.38,322.49 797.56,325.00 793.74,327.52 791.24,330.80 788.74,334.08 786.55,336.73 784.37,339.37 782.47,342.77 780.56,346.16 777.52,348.97 774.48,351.78 772.22,354.07 769.97,356.35 766.93,359.67 763.89,363.00 760.44,365.67 756.98,368.34 754.62,371.68 752.26,375.01 750.03,376.62 747.80,378.23 746.03,381.04 744.26,383.86 741.31,387.55 738.36,391.23 735.96,392.89 733.56,394.54 731.70,397.41 729.85,400.27 727.82,401.68 725.79,403.09 725.16,404.67 724.53,406.25 723.09,407.13 721.64,408.02 721.23,410.41 720.82,412.81 719.41,414.27 717.99,415.72 717.44,417.32 716.90,418.92 714.34,419.82 711.78,420.72 711.10,422.02 710.43,423.32 708.81,424.13 707.20,424.94 706.92,426.11 706.65,427.28 704.02,429.32 701.40,431.35 700.57,433.00 699.74,434.66 698.18,436.73 696.62,438.81 696.01,440.70 695.40,442.60 693.91,443.84 692.42,445.08 690.89,446.51 689.36,447.95 687.40,448.79 685.45,449.63 683.07,449.79 680.69,449.96 679.49,448.76 678.29,447.57 677.80,445.62 677.31,443.66 677.18,441.68 677.05,439.69 677.02,437.67 677.00,435.66 677.01,433.62 677.03,431.59 677.05,429.54 677.07,427.50 677.09,425.45 677.12,423.40 677.15,420.17 677.19,416.94 677.22,414.39 677.25,411.84 677.27,409.58 677.29,407.31 677.30,405.17 677.32,403.03 677.32,400.94 677.32,398.85 677.32,396.78 677.32,394.72 677.31,392.66 677.31,390.60 677.30,388.55 677.30,386.49 677.29,384.44 677.29,382.39 677.29,380.34 677.28,378.28 677.28,376.23 677.28,374.18 677.28,372.13 677.28,370.08 677.55,368.43 677.82,366.79 675.91,366.16 674.01,365.53 672.22,365.22 670.42,364.92 666.59,364.76 662.75,364.59 660.04,364.51 657.34,364.43 654.11,364.39 650.88,364.35 646.39,364.33 641.89,364.31 636.85,364.30 631.82,364.29 626.55,364.29 621.29,364.28 616.97,364.28 612.64,364.27 608.72,364.27 604.81,364.27 600.02,364.27 595.22,364.26 592.15,364.26 589.07,364.26 585.68,364.26 582.29,364.26 577.72,364.26 573.16,364.26 570.17,364.26 567.19,364.26 564.88,364.26 562.57,364.26 558.47,364.26 554.36,364.26 550.53,364.26 546.71,364.26 543.00,364.26 539.29,364.26 534.58,364.26 529.88,364.26 525.80,364.26 521.72,364.26 515.82,364.26 509.92,364.26 505.33,364.26 500.74,364.26 496.70,364.26 492.67,364.26 487.83,364.26 482.99,364.26 477.81,364.26 472.63,364.26 466.26,364.26 459.89,364.26 456.14,364.26 452.39,364.26 447.68,364.26 442.96,364.26 437.83,364.26 432.70,364.26 429.48,364.26 426.26,364.26 420.72,364.26 415.19,364.26 409.71,364.26 404.24,364.26 398.92,365.42 393.60,366.59 388.08,367.10 382.56,367.61 376.16,368.99 369.76,370.37 365.01,372.12 360.26,373.87 354.95,374.65 349.64,375.44 343.33,376.93 337.02,378.41 330.26,381.37 323.49,384.33 318.39,385.64 313.29,386.95 307.00,388.67 300.72,390.38 295.89,391.13 291.06,391.88 285.86,392.19 280.65,392.51 275.45,393.80 270.26,395.10 263.85,396.83 257.44,398.56 252.55,399.32 247.67,400.07 242.44,400.39 237.21,400.71 233.96,400.85 230.71,400.98 227.23,401.04 223.75,401.09 221.24,401.12 218.72,401.14 214.52,401.15 210.33,401.16 205.42,401.17 200.51,401.17 195.30,401.17 190.09,401.18 184.75,401.18 179.41,401.18 172.98,401.18 166.54,401.18 161.73,401.18 156.91,401.18 153.82,401.18 150.73,401.18 147.33,401.18 143.93,401.18 139.20,399.98 134.47,398.78 127.34,397.10 120.20,395.42 112.98,393.52 105.76,391.63 100.54,389.62 95.33,387.61 91.02,385.57 86.70,383.53 82.78,381.48 78.86,379.43 76.27,378.61 73.67,377.78 71.57,377.43 69.46,377.09 64.19,374.51 58.92,371.94 51.65,369.73 44.37,367.52 37.08,365.39 29.79,363.26 24.54,361.15 19.29,359.04 16.11,358.18 12.93,357.31 10.34,355.68 7.75,354.05 5.83,353.46 3.91,352.86 0.86,351.37 -2.18,349.87 -4.37,349.30 -6.55,348.72 -12.82,346.07 -19.09,343.42 -23.83,341.11 -28.58,338.80 -32.68,336.63 -36.79,334.47 -39.65,332.32 -42.51,330.17 -44.59,329.37 -46.66,328.56 -49.77,326.96 -52.87,325.36 -55.40,322.17 -57.93,318.98 -60.98,315.36 -64.03,311.74 -66.38,309.02 -68.72,306.30 -71.85,301.53 -74.99,296.77 -77.32,293.62 -79.64,290.48 -81.67,287.96 -83.70,285.44 -84.67,283.02 -85.63,280.60 -86.97,278.59 -88.32,276.58 -89.94,274.52 -91.55,272.47 -92.35,270.21 -93.15,267.96 -94.47,264.76 -95.79,261.57 -96.39,258.90 -97.00,256.24 -97.25,253.90 -97.50,251.57 -97.61,248.20 -97.72,244.82 -97.75,242.25 -97.79,239.67 -98.80,237.62 -99.81,235.58 -100.31,232.07 -100.81,228.56 -101.01,225.93 -101.20,223.29 -101.29,220.99 -101.37,218.68 -101.41,216.52 -101.44,214.36 -101.46,212.26 -101.49,210.16 -101.50,208.09 -101.52,206.01 -101.53,203.96 -101.55,201.90 -101.56,199.84 -101.57,197.79 -101.57,195.73 -101.58,193.68 -101.59,191.63 -101.59,189.58 -101.60,187.52 -101.60,185.47 -101.59,182.24 -101.57,179.01 -101.56,176.46 -101.55,173.91 -101.54,171.64 -101.53,169.38 -101.53,167.24 -101.52,165.10 -101.53,163.01 -101.53,160.92 -101.54,158.85 -101.55,156.78 -101.56,154.72 -101.56,152.66 -101.57,150.61 -101.58,148.56 -101.58,146.50 -101.59,144.45 -101.59,142.36 -101.58,140.28 -100.46,137.95 -99.34,135.63 -98.95,133.74 -98.56,131.85 -98.39,129.88 -98.22,127.91 -98.15,125.90 -98.08,123.88 -98.05,121.85 -98.02,119.81 -98.01,117.77 -98.00,115.72 -97.91,113.48 -97.81,111.24 -96.72,110.00 -95.62,108.76 -95.45,107.54 -95.28,106.31 -95.13,104.62 -94.97,102.93 -94.87,100.99 -94.76,99.05 -93.54,96.73 -92.33,94.42 -91.92,92.59 -91.50,90.76 -91.22,88.64 -90.93,86.53 -89.63,85.21 -88.34,83.89 -86.76,83.50 -85.18,83.11 -84.78,80.59 -84.39,78.06 -84.11,75.99 -83.84,73.92 -82.62,72.70 -81.39,71.48 -80.87,69.84 -80.35,68.19 -80.14,68.07 -79.93,67.95 -79.69,67.88 -79.45,67.81 -79.21,67.80 -78.96,67.79 -78.72,67.84 -78.48,67.89 -78.25,68.00 -78.03,68.10 -77.84,68.26 -77.65,68.42 -77.50,68.61 -77.35,68.81 -77.26,69.04 -77.16,69.27 -77.12,69.51 -77.08,69.75 -77.10,70.00 -77.12,70.25 -77.20,70.48 -77.28,70.71 -77.41,70.92 -77.54,71.13 -77.72,71.30 -77.90,71.47 -78.96,70.32 -80.02,69.18 -79.79,69.05 -79.57,68.92 -79.32,68.85 -79.07,68.78 -78.81,68.77 -78.56,68.76 -78.30,68.81 -78.05,68.86 -77.82,68.97 -77.58,69.08 -77.38,69.25 -77.19,69.41 -77.03,69.62 -76.88,69.83 -76.77,70.06 -76.67,70.30 -76.63,70.56 -76.59,70.81 -76.61,71.07 -76.63,71.33 -76.72,71.57 -76.80,71.82 -76.94,72.03 -77.08,72.25 -77.26,72.43 -77.45,72.61 -77.64,70.00 -77.83,67.40 -76.35,66.03 -74.87,64.65 -74.35,62.02 -73.84,59.39 -73.52,57.01 -73.21,54.64 -73.05,52.46 -72.90,50.28 -72.82,48.17 -72.74,46.07 -72.62,43.81 -72.50,41.54 -71.39,40.29 -70.29,39.04 -69.98,37.64 -69.67,36.24 -68.19,35.15 -66.70,34.06 -64.25,31.64 -61.81,29.22 -59.64,26.99 -57.47,24.77 -56.61,22.79 -55.75,20.81 -54.10,19.55 -52.44,18.29 -50.56,17.76 -48.67,17.22 -46.91,17.05 -45.14,16.88 -42.68,14.67 -40.21,12.46 -37.83,11.41 -35.44,10.35 -34.73,8.93 -34.02,7.50 -32.32,6.49 -30.61,5.48 -27.96,4.12 -25.32,2.76 -24.39,1.22 -23.47,-0.31 -21.85,-2.32 -20.23,-4.33 -18.31,-5.38 -16.40,-6.42 -14.65,-6.74 -12.91,-7.05 -12.49,-8.24 -12.07,-9.43 -9.41,-10.03 -6.75,-10.64 -6.06,-9.79 -5.37,-8.94 -3.11,-8.80 -0.86,-8.67 0.78,-8.58 2.42,-8.50 4.56,-8.22 6.70,-7.95 7.97,-6.49 9.24,-5.02 9.47,-2.43 9.71,0.16 7.90,1.83 6.10,3.49 5.82,3.65 5.54,3.80 5.23,3.86 4.91,3.92 4.59,3.87 4.28,3.83 3.99,3.68 3.71,3.54 3.48,3.31 3.26,3.08 3.12,2.79 2.98,2.50 2.93,2.19 2.89,1.87 2.96,1.56 3.02,1.24 3.18,0.96 3.34,0.69 3.58,0.47 3.82,0.26 4.11,0.14 4.41,0.01 4.73,-0.00 5.05,-0.02 5.36,0.05 5.67,0.13 5.94,0.30 6.21,0.47 6.41,0.73 6.60,0.98 6.71,1.28 6.82,1.58 6.83,1.90 6.83,2.22 6.74,2.53 6.64,2.83 6.45,3.09 6.26,3.35 6.00,3.53 5.74,3.72 5.43,3.81 5.12,3.90 4.80,3.89 4.48,3.88 4.18,3.77 3.88,3.65 3.64,3.45 3.39,3.25 3.22,2.98 3.05,2.71 2.97,2.39 2.90,2.08 2.93,1.76 2.95,1.45 3.08,1.15 3.21,0.86 3.43,0.62 3.64,0.38 3.64,0.39 3.64,0.39 4.99,-0.43 6.34,-1.26 5.70,-2.96 5.06,-4.65 3.65,-4.44 2.25,-4.23 0.46,-4.29 -1.32,-4.35 -3.11,-4.57 -4.90,-4.78 -7.13,-6.07 -9.36,-7.36 -10.43,-5.89 -11.51,-4.42 -13.29,-4.03 -15.07,-3.64 -16.53,-3.03 -18.00,-2.42 -19.44,-0.54 -20.87,1.33 -22.24,3.40 -23.61,5.47 -26.36,7.05 -29.11,8.63 -30.30,9.00 -31.48,9.36 -32.68,11.17 -33.88,12.98 -35.97,14.00 -38.07,15.01 -41.25,17.66 -44.44,20.30 -46.15,20.46 -47.87,20.63 -49.29,20.87 -50.71,21.11 -51.91,21.69 -53.11,22.26 -54.08,24.60 -55.05,26.94 -57.18,29.31 -59.31,31.69 -63.05,34.78 -66.79,37.87 -67.38,39.58 -67.97,41.30 -68.96,41.82 -69.96,42.33 -69.88,44.24 -69.80,46.14 -69.82,48.29 -69.84,50.44 -69.92,52.72 -70.00,54.99 -70.23,57.55 -70.46,60.11 -71.24,63.54 -72.02,66.98 -73.58,68.78 -75.14,70.57 -77.58,69.88 -80.02,69.18 -79.79,69.05 -79.57,68.92 -79.32,68.85 -79.07,68.78 -78.81,68.77 -78.56,68.76 -78.30,68.81 -78.05,68.86 -77.82,68.97 -77.58,69.08 -77.38,69.25 -77.19,69.41 -77.03,69.62 -76.88,69.83 -76.77,70.06 -76.67,70.30 -76.63,70.56 -76.59,70.81 -76.61,71.07 -76.63,71.33 -76.72,71.57 -76.80,71.82 -76.94,72.03 -77.08,72.25 -77.26,72.43 -77.45,72.61 -78.90,70.40 -80.35,68.19 -80.14,68.07 -79.93,67.95 -79.69,67.88 -79.45,67.81 -79.21,67.80 -78.96,67.79 -78.72,67.84 -78.48,67.89 -78.25,68.00 -78.03,68.10 -77.84,68.26 -77.65,68.42 -77.50,68.61 -77.35,68.81 -77.26,69.04 -77.16,69.27 -77.12,69.51 -77.08,69.75 -77.10,70.00 -77.12,70.25 -77.20,70.48 -77.28,70.71 -77.41,70.92 -77.54,71.13 -77.72,71.30 -77.90,71.47 -79.27,73.30 -80.63,75.12 -80.59,76.89 -80.55,78.66 -80.91,80.67 -81.26,82.68 -82.35,84.31 -83.44,85.95 -85.85,86.72 -88.26,87.49 -88.37,89.46 -88.47,91.43 -88.97,93.67 -89.47,95.91 -90.41,97.62 -91.34,99.33 -91.40,101.31 -91.45,103.29 -91.67,105.28 -91.89,107.27 -92.61,109.14 -93.33,111.01 -94.32,111.52 -95.32,112.03 -95.23,113.88 -95.15,115.74 -95.17,117.80 -95.19,119.86 -95.23,121.93 -95.27,123.99 -95.36,126.08 -95.44,128.17 -95.65,130.30 -95.86,132.43 -96.35,134.65 -96.85,136.86 -97.81,138.64 -98.77,140.42 -98.77,142.43 -98.77,144.45 -98.77,146.50 -98.78,148.56 -98.78,150.61 -98.79,152.66 -98.80,154.72 -98.81,156.78 -98.82,158.85 -98.83,160.92 -98.83,163.01 -98.83,165.10 -98.83,167.24 -98.82,169.38 -98.82,171.64 -98.81,173.91 -98.80,176.46 -98.79,179.01 -98.77,182.24 -98.76,185.47 -98.76,187.52 -98.76,189.58 -98.77,191.63 -98.77,193.68 -98.78,195.73 -98.79,197.78 -98.79,199.84 -98.80,201.89 -98.81,203.95 -98.82,206.01 -98.82,208.07 -98.83,210.14 -98.82,212.23 -98.81,214.31 -98.78,216.45 -98.75,218.59 -98.67,220.84 -98.59,223.10 -98.40,225.65 -98.21,228.21 -97.81,231.36 -97.42,234.50 -96.30,237.02 -95.19,239.53 -95.14,242.14 -95.09,244.74 -94.99,248.02 -94.89,251.29 -94.66,253.48 -94.43,255.67 -93.90,258.12 -93.36,260.57 -92.01,263.85 -90.66,267.12 -90.06,269.00 -89.46,270.89 -87.80,273.01 -86.13,275.13 -84.66,277.39 -83.18,279.65 -82.41,281.74 -81.64,283.83 -79.59,286.37 -77.53,288.91 -75.16,292.12 -72.79,295.33 -69.76,299.96 -66.73,304.58 -64.38,307.32 -62.03,310.05 -58.94,313.71 -55.85,317.38 -53.72,320.23 -51.59,323.09 -48.64,324.60 -45.69,326.12 -43.32,327.09 -40.95,328.06 -38.25,330.11 -35.56,332.15 -31.49,334.29 -27.43,336.44 -22.75,338.72 -18.07,341.00 -11.96,343.59 -5.86,346.18 -3.45,346.85 -1.03,347.51 1.84,348.94 4.71,350.36 6.93,351.10 9.15,351.83 11.40,353.31 13.66,354.79 16.96,355.70 20.27,356.60 25.40,358.67 30.52,360.74 37.83,362.87 45.14,365.01 52.61,367.30 60.08,369.59 65.00,372.05 69.93,374.50 72.20,374.89 74.47,375.28 77.27,376.19 80.07,377.10 83.95,379.13 87.83,381.16 92.05,383.16 96.28,385.16 101.35,387.13 106.43,389.09 113.62,390.98 120.80,392.87 127.97,394.55 135.13,396.23 139.54,397.39 143.95,398.55 147.34,398.55 150.73,398.55 153.82,398.55 156.91,398.55 161.73,398.55 166.54,398.55 172.98,398.55 179.41,398.55 184.75,398.55 190.09,398.55 195.30,398.55 200.51,398.54 205.42,398.54 210.32,398.54 214.51,398.53 218.70,398.52 221.20,398.49 223.71,398.47 227.15,398.41 230.60,398.36 233.82,398.22 237.05,398.09 242.16,397.78 247.27,397.48 252.01,396.75 256.75,396.03 263.19,394.29 269.63,392.55 275.06,391.22 280.48,389.89 285.57,389.59 290.66,389.28 295.35,388.56 300.03,387.85 306.33,386.13 312.64,384.40 317.54,383.16 322.45,381.92 329.43,378.89 336.41,375.86 342.84,374.35 349.26,372.84 354.31,372.12 359.37,371.40 364.29,369.60 369.21,367.81 375.76,366.40 382.32,365.00 387.69,364.51 393.05,364.02 398.64,362.82 404.23,361.63 409.71,361.63 415.19,361.63 420.72,361.63 426.26,361.63 429.48,361.63 432.70,361.63 437.83,361.63 442.96,361.63 447.68,361.63 452.39,361.63 456.14,361.63 459.89,361.63 466.26,361.63 472.63,361.63 477.81,361.63 482.99,361.63 487.83,361.63 492.67,361.63 496.70,361.63 500.74,361.63 505.33,361.63 509.92,361.63 515.82,361.63 521.72,361.63 525.80,361.63 529.88,361.63 534.58,361.63 539.29,361.63 543.00,361.63 546.71,361.63 550.53,361.63 554.36,361.63 558.47,361.63 562.57,361.63 564.88,361.63 567.19,361.63 570.17,361.63 573.16,361.63 577.72,361.63 582.29,361.63 585.68,361.63 589.07,361.62 592.15,361.62 595.22,361.62 600.02,361.62 604.81,361.62 608.73,361.62 612.64,361.62 616.97,361.61 621.29,361.61 626.55,361.61 631.82,361.61 636.86,361.61 641.90,361.61 646.40,361.61 650.91,361.62 654.16,361.64 657.40,361.66 660.13,361.71 662.86,361.76 666.91,361.91 670.97,362.06 673.02,362.50 675.08,362.94 677.35,364.05 679.61,365.16 679.88,367.62 680.15,370.08 680.15,372.13 680.15,374.18 680.14,376.23 680.14,378.28 680.14,380.34 680.14,382.39 680.13,384.44 680.13,386.49 680.12,388.55 680.12,390.60 680.11,392.66 680.11,394.72 680.11,396.78 680.10,398.85 680.10,400.94 680.11,403.03 680.12,405.17 680.14,407.31 680.16,409.58 680.18,411.84 680.21,414.39 680.24,416.94 680.28,420.17 680.32,423.40 680.35,425.44 680.38,427.48 680.43,429.51 680.47,431.54 680.53,433.55 680.60,435.55 680.69,437.48 680.78,439.42 680.92,441.17 681.06,442.93 681.52,445.17 681.98,447.40 683.14,447.01 684.31,446.61 685.80,446.14 687.28,445.66 688.94,444.01 690.60,442.35 691.73,441.86 692.85,441.37 693.48,439.21 694.12,437.04 695.49,435.11 696.86,433.17 698.03,430.94 699.20,428.71 701.26,427.16 703.33,425.60 704.30,423.88 705.26,422.16 706.57,421.71 707.88,421.27 709.17,419.61 710.46,417.95 712.53,417.43 714.61,416.92 715.16,415.20 715.71,413.47 716.88,412.66 718.05,411.84 718.81,408.90 719.58,405.96 720.90,405.37 722.22,404.79 723.21,402.93 724.19,401.06 725.95,399.91 727.71,398.76 729.87,395.59 732.03,392.42 734.18,390.99 736.34,389.57 739.19,386.00 742.05,382.43 744.15,379.28 746.24,376.13 748.20,374.79 750.16,373.45 752.76,369.86 755.35,366.28 758.66,363.75 761.96,361.22 765.03,357.86 768.10,354.50 770.40,352.17 772.71,349.84 775.50,347.34 778.30,344.83 780.32,341.27 782.34,337.71 784.50,335.09 786.65,332.47 789.45,328.91 792.26,325.35 796.01,322.87 799.77,320.40 803.76,317.31 807.76,314.23 809.96,312.42 812.16,310.60 814.50,309.38 816.85,308.15 820.33,304.97 823.81,301.79 826.83,300.05 829.85,298.32 831.92,297.13 833.99,295.95 836.76,292.87 839.53,289.80 843.64,285.31 847.76,280.81 850.07,278.62 852.38,276.42 855.13,274.28 857.88,272.13 859.74,269.63 861.59,267.12 863.50,264.28 865.41,261.44 865.31,259.57 865.21,257.70 865.07,255.90 864.94,254.10 864.73,252.65 864.52,251.19 864.08,250.09 863.64,249.00 861.76,248.93 859.89,248.86 857.52,248.50 855.15,248.13 851.97,247.16 848.78,246.20 846.78,244.28 844.79,242.37 842.61,240.65 840.44,238.93 837.61,237.53 834.77,236.13 832.63,235.43 830.48,234.72 828.44,233.35 826.39,231.97 823.34,231.20 820.29,230.42 818.80,229.00 817.31,227.58 813.05,226.64 808.79,225.70 806.68,223.77 804.56,221.85 802.09,220.10 799.63,218.35 796.12,216.88 792.60,215.41 788.81,214.60 785.02,213.78 781.39,212.01 777.76,210.23 774.15,208.81 770.53,207.39 766.51,206.71 762.50,206.04 758.32,204.54 754.14,203.04 748.67,202.10 743.21,201.17 740.83,199.29 738.45,197.40 735.19,195.66 731.94,193.91 729.32,192.61 726.70,191.30 722.35,190.82 718.01,190.35 715.37,189.25 712.74,188.15 709.60,185.83 706.46,183.51 703.29,183.39 700.12,183.27 697.49,182.93 694.87,182.60 691.23,181.83 687.60,181.05 681.58,179.26 675.57,177.46 671.35,176.04 667.12,174.62 664.29,173.99 661.47,173.36 657.49,171.95 653.52,170.53 651.28,169.89 649.04,169.24 646.76,167.93 644.48,166.62 641.06,166.13 637.63,165.65 631.92,164.48 626.22,163.31 620.64,160.71 615.05,158.10 611.23,157.38 607.42,156.65 603.74,155.06 600.06,153.48 595.94,152.39 591.83,151.31 587.39,148.89 582.96,146.48 577.57,143.61 572.18,140.75 566.34,139.38 560.51,138.01 554.52,134.92 548.54,131.84 544.11,130.06 539.68,128.27 536.60,126.96 533.52,125.64 533.37,125.53 533.21,125.42 533.09,125.28 532.97,125.13 532.88,124.96 532.80,124.79 532.76,124.61 532.71,124.43 532.72,124.24 532.72,124.05 532.77,123.86 532.82,123.68 532.91,123.52 533.00,123.35 533.13,123.21 533.26,123.07 533.41,122.97 533.57,122.86 533.75,122.80 533.93,122.74 534.12,122.72 534.30,122.70 534.49,122.72 534.68,122.75 534.85,122.82 535.03,122.89 534.61,123.73 534.19,124.57 534.05,124.47 533.90,124.36 533.78,124.23 533.66,124.09 533.58,123.93 533.50,123.77 533.46,123.59 533.42,123.41 533.43,123.23 533.43,123.05 533.48,122.88 533.52,122.70 533.61,122.54 533.70,122.39 533.82,122.25 533.94,122.12 534.09,122.02 534.24,121.92 534.41,121.86 534.58,121.80 534.76,121.78 534.94,121.76 535.12,121.79 535.30,121.81 535.47,121.88 535.64,121.95 536.41,123.66 537.19,125.37 539.08,126.47 540.98,127.57 542.75,129.93 544.52,132.29 545.99,134.76 547.47,137.23 551.29,140.68 555.10,144.14 559.03,149.33 562.96,154.52 567.24,161.11 571.52,167.70 574.19,172.04 576.87,176.37 578.37,178.43 579.88,180.49 580.65,182.15 581.43,183.81 583.51,185.33 585.59,186.84 588.69,188.07 591.80,189.30 593.71,191.84 595.61,194.38 597.30,197.22 598.98,200.05 600.65,201.45 602.31,202.84 604.34,203.76 606.38,204.68 608.26,206.47 610.14,208.26 612.05,209.71 613.96,211.16 616.52,212.08 619.09,212.99 622.42,215.05 625.76,217.10 628.49,219.05 631.23,220.99 635.58,223.03 639.93,225.07 642.70,227.13 645.46,229.19 646.09,231.86 646.71,234.54 646.89,234.53 647.07,234.52 647.24,234.55 647.42,234.58 647.58,234.66 647.74,234.73 647.88,234.84 648.02,234.95 648.13,235.09 648.24,235.23 648.31,235.39 648.39,235.55 648.42,235.73 648.45,235.91 648.44,236.08 648.43,236.26 648.37,236.43 648.32,236.60 648.23,236.75 648.14,236.90 648.01,237.03 647.88,237.16 647.73,237.25 647.58,237.34 647.41,237.39 647.24,237.44 645.37,237.55 643.49,237.65 641.67,237.93 639.85,238.21 637.90,238.95 635.96,239.68 633.37,241.68 630.78,243.68 627.31,245.48 623.85,247.29 620.56,248.75 617.27,250.22 614.80,250.78 612.34,251.35 608.63,252.76 604.93,254.18 601.57,254.63 598.21,255.08 595.02,256.16 591.83,257.25 586.38,259.94 580.92,262.63 576.03,263.24 571.13,263.86 566.57,265.40 562.02,266.93 556.57,267.68 551.13,268.44 545.40,270.27 539.66,272.11 533.52,273.64 527.38,275.17 520.58,275.94 513.79,276.72 507.36,278.58 500.94,280.45 495.54,282.09 490.15,283.73 485.11,284.72 480.07,285.71 474.95,288.22 469.84,290.74 465.72,290.97 461.61,291.20 456.91,291.72 452.21,292.23 448.05,293.53 443.89,294.83 439.45,295.04 435.01,295.24 431.80,295.74 428.60,296.23 423.27,297.42 417.93,298.62 413.06,298.62 408.20,298.62 404.10,298.62 400.01,298.62 395.27,298.62 390.54,298.62 386.76,298.61 382.97,298.61 378.97,298.60 374.97,298.60 370.45,298.58 365.93,298.56 360.21,298.53 354.48,298.49 348.36,298.40 342.24,298.32 335.19,298.11 328.14,297.90 321.35,297.41 314.55,296.92 308.48,295.77 302.41,294.62 293.28,291.97 284.15,289.33 277.06,288.59 269.97,287.85 260.78,286.14 251.60,284.42 242.08,283.13 232.55,281.84 222.61,278.85 212.67,275.86 199.09,271.59 185.51,267.32 173.15,262.83 160.79,258.33 156.40,256.16 152.01,253.99 146.76,251.68 141.50,249.37 138.40,249.36 135.29,249.35 132.84,249.32 130.39,249.29 127.09,249.23 123.79,249.16 118.46,249.00 113.12,248.85 107.92,248.47 102.72,248.10 97.91,247.22 93.10,246.33 86.92,244.32 80.73,242.30 73.40,240.28 66.07,238.27 61.22,236.35 56.36,234.44 52.41,232.75 48.46,231.05 43.76,229.74 39.06,228.42 33.31,225.48 27.57,222.54 20.89,220.96 14.20,219.39 8.63,215.82 3.06,212.25 0.16,209.66 -2.72,207.06 -5.22,206.19 -7.71,205.32 -10.91,203.37 -14.10,201.41 -16.50,199.71 -18.91,198.01 -22.61,196.50 -26.31,194.98 -29.66,191.72 -33.01,188.46 -38.48,183.50 -43.96,178.54 -46.91,175.33 -49.86,172.12 -51.93,170.08 -53.99,168.05 -56.41,166.01 -58.83,163.97 -62.45,161.55 -66.08,159.13 -66.75,156.92 -67.43,154.71 -69.08,152.04 -70.73,149.38 -72.06,146.05 -73.39,142.71 -73.95,140.73 -74.50,138.75 -76.04,136.36 -77.58,133.97 -78.67,131.14 -79.76,128.31 -79.76,124.96 -79.77,121.60 -79.77,119.29 -79.77,116.99 -79.77,114.34 -79.77,111.69 -79.78,108.22 -79.78,104.76 -79.78,102.17 -79.78,99.57 -79.77,96.24 -79.76,92.90 -79.74,90.61 -79.71,88.32 -79.64,85.72 -79.57,83.11 -79.37,79.70 -79.17,76.28 -78.67,73.89 -78.16,71.50 -77.13,69.28 -76.10,67.06 -75.90,63.85 -75.69,60.64 -74.86,58.77 -74.04,56.91 -72.90,56.36 -71.76,55.81 -71.31,53.70 -70.86,51.58 -69.60,49.32 -68.33,47.05 -65.92,45.20 -63.52,43.35 -62.48,41.68 -61.45,40.01 -60.94,38.04 -60.43,36.06 -59.13,34.58 -57.84,33.10 -55.70,32.72 -53.57,32.35 -51.53,31.95 -49.49,31.56 -48.62,29.99 -47.75,28.41 -46.18,27.81 -44.61,27.20 -42.90,25.33 -41.20,23.46 -37.88,22.28 -34.56,21.10 -31.12,18.01 -27.69,14.92 -24.72,13.38 -21.74,11.84 -19.99,11.20 -18.24,10.56 -16.05,8.71 -13.86,6.86 -11.15,5.37 -8.43,3.88 -5.16,3.38 -1.89,2.89 1.21,1.68 4.32,0.47 4.50,0.42 4.69,0.38 4.88,0.38 5.06,0.38 5.25,0.43 5.43,0.47 5.60,0.56 5.77,0.65 5.91,0.77 6.05,0.90 6.16,1.06 6.26,1.21 6.33,1.39 6.40,1.57 6.42,1.75 6.44,1.94 6.42,2.13 6.40,2.32 6.33,2.49 6.26,2.67 6.15,2.83 6.05,2.98 5.90,3.11 5.76,3.23 5.59,3.32 5.43,3.41 5.43,3.41 L 5.43,3.41 Z"></path></g></svg>